<svg xmlns="http://www.w3.org/2000/svg" width="1280" height="640" viewBox="0 0 1280 640">
<rect width="1280" height="640" fill="#ddd2b2"/>
<path d="M650.7 49.3 L609.3 59.3 L577.1 64.3 L554.3 64.3 L542.1 63.6 L540.7 62.1 L525.0 60.7 L495.0 59.3 L479.3 57.9 L477.9 56.4 L465.0 55.7 L440.7 55.7 L427.9 55.0 L426.4 53.6 L413.6 52.1 L389.3 50.7 L376.4 49.3 L375.0 47.9 L310.0 47.9 L181.4 49.3 L114.3 50.7 L108.6 52.1 L105.4 55.4 L104.6 60.4 L111.4 75.7 L125.7 101.4 L132.1 126.4 L130.7 150.7 L115.7 195.0 L87.1 259.3 L80.0 302.1 L94.3 323.6 L100.0 352.9 L97.1 390.0 L105.7 425.0 L125.7 457.9 L134.3 487.1 L131.4 512.9 L124.6 540.4 L113.9 569.6 L120.7 582.1 L145.0 577.9 L164.3 573.6 L178.6 569.3 L189.3 567.1 L196.4 567.1 L200.7 566.4 L202.1 565.0 L221.4 564.3 L258.6 564.3 L295.0 568.6 L330.7 577.1 L365.0 582.9 L397.9 585.7 L415.0 587.9 L416.4 589.3 L423.6 590.0 L436.4 590.0 L443.6 590.7 L445.0 592.1 L452.1 592.9 L465.0 592.9 L472.1 593.6 L473.6 595.0 L499.3 595.0 L549.3 593.6 L575.0 592.1 L576.4 590.7 L583.6 590.0 L596.4 590.0 L603.6 589.3 L605.0 587.9 L630.0 585.0 L678.6 580.7 L703.6 577.9 L705.0 576.4 L717.1 575.7 L740.0 575.7 L752.1 576.4 L753.6 577.9 L761.4 578.6 L775.7 578.6 L783.6 579.3 L785.0 580.7 L813.6 581.4 L869.3 581.4 L897.9 582.1 L899.3 583.6 L912.1 584.3 L936.4 584.3 L949.3 585.0 L950.7 586.4 L959.3 587.1 L975.0 587.1 L983.6 587.9 L985.0 589.3 L1011.4 590.0 L1062.9 590.0 L1089.3 589.3 L1090.7 587.9 L1098.6 587.1 L1112.9 587.1 L1120.7 586.4 L1122.1 585.0 L1134.3 584.3 L1157.1 584.3 L1161.8 570.4 L1148.2 542.5 L1141.4 519.3 L1141.4 500.7 L1143.6 482.1 L1147.9 463.6 L1155.7 443.6 L1167.1 422.1 L1175.7 391.4 L1181.4 351.4 L1188.6 317.1 L1197.1 288.6 L1200.0 249.3 L1197.1 199.3 L1190.0 161.4 L1178.6 135.7 L1174.3 105.0 L1177.1 69.3 L1153.2 51.1 L1102.5 50.4 L1076.4 49.3 L1075.0 47.9 L1040.0 47.1 L971.4 47.1 L936.4 46.4 L935.0 45.0 L927.1 44.3 L912.9 44.3 L905.0 45.0 L903.6 46.4 L896.4 47.1 L883.6 47.1 L872.1 48.6 L862.1 51.4 L852.1 52.9 L842.1 52.9 L836.4 53.6 L835.0 55.0 L825.7 55.7 L808.6 55.7 L799.3 55.0 L797.9 53.6 L785.0 51.4 L760.7 48.6 L747.9 46.4 L746.4 45.0 L727.1 44.3 L690.0 44.3 Z" fill="#e2d7be"/>
<path d="M898.2 362.5 L848.9 507.5 L855.4 581.1 L917.5 583.2 L949.3 585.0 L950.7 586.4 L959.3 587.1 L975.0 587.1 L983.6 587.9 L985.0 589.3 L1011.4 590.0 L1062.9 590.0 L1089.3 589.3 L1090.7 587.9 L1098.6 587.1 L1112.9 587.1 L1120.7 586.4 L1122.1 585.0 L1134.3 584.3 L1157.1 584.3 L1161.8 570.4 L1148.2 542.5 L1142.9 512.1 L1145.7 479.3 L1152.1 452.1 L1162.1 430.7 L1137.5 390.4 L1078.2 331.1 L1035.0 300.7 L1007.9 299.3 L993.6 297.9 L992.1 296.4 L985.0 295.7 L972.1 295.7 L965.0 295.0 L963.6 293.6 L955.7 292.9 L941.4 292.9 L931.4 292.1 L925.7 290.7 Z" fill="#c5bd9f"/>
<path d="M1160.4 218.2 L1086.8 274.6 L1078.9 331.8 L1136.8 389.6 L1167.5 416.8 L1171.1 413.2 L1175.7 391.4 L1181.4 351.4 L1188.6 317.1 L1197.1 288.6 L1200.4 253.2 L1198.2 211.1 Z" fill="#bca885"/>
<path d="M354.6 97.5 L355.4 198.2 L398.2 265.4 L483.2 298.9 L561.1 274.6 L631.8 192.5 L662.1 126.4 L652.1 76.4 L646.1 51.1 L643.9 50.4 L629.3 53.6 L602.1 60.7 L577.1 64.3 L554.3 64.3 L542.1 63.6 L540.7 62.1 L533.6 61.4 L520.7 61.4 L513.6 60.7 L512.1 59.3 L490.7 57.9 L449.3 56.4 L427.9 55.0 L426.4 53.6 L420.7 52.9 L410.7 52.9 L405.0 52.1 L403.6 50.7 L390.7 49.3 L366.4 47.9 Z" fill="#d49368"/>
<path d="M630.4 193.9 L559.6 276.1 L535.0 364.3 L556.4 458.6 L595.4 524.6 L651.8 562.5 L680.7 580.7 L682.1 579.3 L687.9 578.6 L697.9 578.6 L703.6 577.9 L705.0 576.4 L717.1 575.7 L740.0 575.7 L752.1 576.4 L753.6 577.9 L761.4 578.6 L775.7 578.6 L783.6 579.3 L785.0 580.7 L795.0 581.4 L813.6 581.4 L847.5 508.2 L896.8 361.8 L905.4 263.9 L873.2 214.6 L809.3 180.7 L713.6 162.1 Z" fill="#eda575"/>
<path d="M86.8 262.5 L77.5 281.8 L80.0 302.1 L94.3 323.6 L100.0 352.9 L97.1 390.0 L105.7 425.0 L125.7 457.9 L133.6 490.0 L129.3 521.4 L122.1 548.6 L112.1 571.4 L108.9 583.2 L112.5 583.9 L115.0 583.6 L116.4 582.1 L120.0 581.4 L125.7 581.4 L142.5 578.2 L170.4 571.8 L199.3 502.9 L229.3 371.4 L222.5 298.2 L178.9 283.2 L155.0 274.3 L150.7 271.4 L138.6 267.1 L118.6 261.4 L106.4 257.1 L102.1 254.3 L97.9 252.9 L93.6 252.9 Z" fill="#da976b"/>
<path d="M293.6 47.9 L292.1 49.3 L247.9 50.0 L160.7 50.0 L113.9 51.1 L107.5 53.2 L106.4 60.7 L110.7 73.6 L117.1 86.4 L125.7 99.3 L130.7 114.3 L132.1 131.4 L130.7 150.7 L126.4 172.1 L116.4 200.0 L100.7 234.3 L129.6 264.6 L203.2 291.1 L242.1 304.3 L246.4 304.3 L275.4 290.4 L328.9 262.5 L355.0 198.6 L353.6 98.6 L338.2 48.2 L308.9 47.5 Z" fill="#feb17e"/>
<path d="M905.0 45.0 L903.6 46.4 L899.3 47.1 L892.1 47.1 L887.5 49.6 L885.4 54.6 L877.9 91.4 L865.0 160.0 L874.6 218.2 L906.8 266.1 L925.7 290.7 L931.4 292.1 L941.4 292.9 L955.7 292.9 L963.6 293.6 L965.0 295.0 L972.1 295.7 L985.0 295.7 L992.1 296.4 L993.6 297.9 L1001.4 298.6 L1015.7 298.6 L1023.6 299.3 L1025.0 300.7 L1032.9 301.4 L1047.1 301.4 L1089.6 273.9 L1160.4 218.9 L1195.0 185.0 L1193.6 172.1 L1187.9 155.0 L1177.9 133.6 L1174.3 105.0 L1177.1 69.3 L1153.2 51.1 L1102.5 50.4 L1076.4 49.3 L1075.0 47.9 L1040.0 47.1 L971.4 47.1 L936.4 46.4 L935.0 45.0 L927.1 44.3 L912.9 44.3 Z" fill="#dd9a6d"/>
<path d="M324.6 263.9 L271.1 291.8 L229.3 370.7 L199.3 500.7 L207.5 565.4 L253.9 564.6 L277.9 565.0 L279.3 566.4 L283.6 567.1 L290.7 567.1 L297.9 568.6 L305.0 571.4 L311.4 572.9 L317.1 572.9 L327.1 575.0 L341.4 579.3 L352.9 581.4 L361.4 581.4 L366.4 582.1 L367.9 583.6 L387.1 585.7 L424.3 588.6 L443.6 590.7 L445.0 592.1 L452.1 592.9 L465.0 592.9 L472.1 593.6 L473.6 595.0 L485.0 595.7 L506.4 595.7 L529.6 573.9 L554.6 530.4 L557.1 462.1 L537.1 369.3 L525.4 320.4 L521.8 315.4 L480.7 297.1 L402.1 265.7 L360.0 250.0 L354.3 250.0 Z" fill="#f3a978"/>
<path d="M665.4 46.1 L653.2 49.6 L651.4 75.7 L660.0 124.3 L666.1 150.4 L669.6 153.9 L686.4 157.9 L716.4 162.1 L732.1 165.0 L733.6 166.4 L745.0 168.6 L766.4 171.4 L785.0 175.0 L800.7 179.3 L812.1 181.4 L819.3 181.4 L830.7 183.6 L846.4 187.9 L862.1 154.3 L877.9 82.9 L879.3 47.9 L866.4 49.3 L859.3 50.7 L857.9 52.1 L852.1 52.9 L842.1 52.9 L836.4 53.6 L835.0 55.0 L825.7 55.7 L808.6 55.7 L799.3 55.0 L797.9 53.6 L785.0 51.4 L760.7 48.6 L747.9 46.4 L746.4 45.0 L727.1 44.3 L690.0 44.3 Z" fill="#d6caa4"/>
<path d="M557.5 525.4 L535.4 561.8 L523.2 583.9 L521.1 591.8 L533.6 595.0 L560.7 593.6 L575.0 592.1 L576.4 590.7 L583.6 590.0 L596.4 590.0 L603.6 589.3 L605.0 587.9 L623.6 585.7 L659.3 582.9 L650.0 562.9 L595.7 525.7 Z" fill="#d5c9a3"/>
<path d="M251.4 34.3 L250.8 34.3 L245.7 34.3 L240.0 34.4 L234.3 34.4 L228.6 34.4 L222.9 34.5 L217.1 34.5 L211.4 34.5 L205.7 34.5 L200.0 34.5 L194.3 34.5 L188.6 34.5 L182.9 34.5 L177.1 34.5 L171.4 34.6 L165.7 34.7 L160.0 35.0 L154.3 35.4 L148.6 36.0 L142.9 36.9 L137.1 38.2 L131.4 40.0 L131.4 40.0 L125.7 42.5 L120.5 45.7 L120.0 46.0 L114.3 51.2 L114.1 51.4 L110.0 57.1 L108.6 60.0 L107.3 62.9 L105.7 68.6 L104.9 74.3 L104.9 80.0 L105.4 85.7 L106.4 91.4 L107.6 97.1 L108.6 101.3 L108.9 102.9 L110.2 108.6 L111.4 114.3 L112.5 120.0 L113.2 125.7 L113.7 131.4 L113.8 137.1 L113.5 142.9 L112.9 148.6 L112.0 154.3 L110.9 160.0 L109.5 165.7 L108.6 169.3 L107.9 171.4 L106.1 177.1 L104.1 182.9 L102.9 186.4 L102.0 188.6 L99.8 194.3 L97.7 200.0 L97.1 201.6 L95.6 205.7 L93.6 211.4 L91.9 217.1 L91.4 218.8 L90.3 222.9 L88.9 228.6 L87.9 234.3 L87.1 240.0 L86.6 245.7 L86.4 251.4 L86.5 257.1 L86.9 262.9 L87.6 268.6 L88.7 274.3 L90.2 280.0 L91.4 284.0 L92.0 285.7 L94.2 291.4 L96.7 297.1 L97.1 298.1 L99.5 302.9 L102.3 308.6 L102.9 309.8 L105.1 314.3 L107.6 320.0 L108.6 322.7 L109.8 325.7 L111.5 331.4 L112.8 337.1 L113.8 342.9 L114.3 347.0 L114.5 348.6 L115.0 354.3 L115.2 360.0 L115.3 365.7 L115.4 371.4 L115.5 377.1 L115.7 382.9 L116.2 388.6 L116.9 394.3 L117.9 400.0 L119.3 405.7 L120.0 408.1 L121.1 411.4 L123.4 417.1 L125.7 422.7 L125.8 422.9 L128.6 428.6 L131.4 434.3 L131.4 434.3 L134.4 440.0 L137.0 445.7 L137.1 446.1 L139.5 451.4 L141.6 457.1 L142.9 461.5 L143.3 462.9 L144.6 468.6 L145.6 474.3 L146.2 480.0 L146.5 485.7 L146.5 491.4 L146.3 497.1 L145.8 502.9 L145.2 508.6 L144.6 514.3 L144.2 520.0 L143.9 525.7 L144.0 531.4 L144.7 537.1 L146.4 542.9 L148.6 546.9 L149.7 548.6 L154.3 553.2 L155.7 554.3 L160.0 556.9 L165.7 559.7 L166.3 560.0 L171.4 561.9 L177.1 563.7 L182.9 565.2 L184.8 565.7 L188.6 566.5 L194.3 567.7 L200.0 568.6 L205.7 569.5 L211.4 570.1 L217.1 570.6 L222.9 571.0 L228.6 571.3 L232.4 571.4 L234.3 571.5 L240.0 571.7 L245.7 571.9 L251.4 572.2 L257.1 572.5 L262.9 572.9 L268.6 573.4 L274.3 574.0 L280.0 574.7 L285.7 575.5 L291.4 576.4 L296.0 577.1 L297.1 577.4 L302.9 578.4 L308.6 579.5 L314.3 580.6 L320.0 581.7 L325.7 582.8 L325.8 582.9 L331.4 584.0 L337.1 585.1 L342.9 586.1 L348.6 587.1 L354.3 588.0 L357.9 588.6 L360.0 588.9 L365.7 589.8 L371.4 590.6 L377.1 591.4 L382.9 592.1 L388.6 592.8 L394.3 593.5 L400.0 594.1 L401.5 594.3 L405.7 594.8 L411.4 595.4 L417.1 596.0 L422.9 596.6 L428.6 597.2 L434.3 597.8 L440.0 598.4 L445.7 598.9 L451.4 599.5 L457.1 599.9 L457.9 600.0 L462.9 600.4 L468.6 600.7 L474.3 601.0 L480.0 601.1 L485.7 601.0 L491.4 600.7 L497.1 600.2 L498.8 600.0 L502.9 599.5 L508.6 598.5 L514.3 597.3 L520.0 595.8 L524.9 594.3 L525.7 594.0 L531.4 592.1 L537.1 590.0 L540.8 588.6 L542.9 587.7 L548.6 585.4 L554.3 583.2 L555.1 582.9 L560.0 581.0 L565.7 579.1 L571.4 577.6 L573.8 577.1 L577.1 576.5 L582.9 575.8 L588.6 575.6 L594.3 575.8 L600.0 576.2 L605.7 576.9 L607.3 577.1 L611.4 577.8 L617.1 578.8 L622.9 579.9 L628.6 581.0 L634.3 582.1 L637.9 582.9 L640.0 583.3 L645.7 584.5 L651.4 585.5 L657.1 586.5 L662.9 587.3 L668.6 588.1 L673.7 588.6 L674.3 588.6 L680.0 589.1 L685.7 589.4 L691.4 589.6 L697.1 589.7 L702.9 589.7 L708.6 589.7 L714.3 589.6 L720.0 589.6 L725.7 589.5 L731.4 589.6 L737.1 589.7 L742.9 589.9 L748.6 590.2 L754.3 590.5 L760.0 590.9 L765.7 591.2 L771.4 591.5 L777.1 591.7 L782.9 591.8 L788.6 591.7 L794.3 591.5 L800.0 591.0 L805.7 590.2 L811.4 589.2 L814.2 588.6 L817.1 587.9 L822.9 586.4 L828.6 584.5 L833.1 582.9 L834.3 582.4 L840.0 580.1 L845.7 577.6 L846.8 577.1 L851.4 575.0 L857.1 572.5 L860.0 571.4 L862.9 570.2 L868.6 568.1 L874.3 566.5 L877.7 565.7 L880.0 565.2 L885.7 564.2 L891.4 563.7 L897.1 563.6 L902.9 563.7 L908.6 563.9 L914.3 564.2 L920.0 564.5 L925.7 564.9 L931.4 565.2 L937.1 565.6 L938.5 565.7 L942.9 566.0 L948.6 566.3 L954.3 566.7 L960.0 567.1 L965.7 567.5 L971.4 567.9 L977.1 568.3 L982.9 568.7 L988.6 569.0 L994.3 569.3 L1000.0 569.6 L1005.7 569.8 L1011.4 570.0 L1017.1 570.1 L1022.9 570.2 L1028.6 570.3 L1034.3 570.3 L1040.0 570.3 L1045.7 570.2 L1051.4 570.2 L1057.1 570.0 L1062.9 569.9 L1068.6 569.7 L1074.3 569.4 L1080.0 569.1 L1085.7 568.6 L1091.4 568.0 L1097.1 567.2 L1102.9 566.0 L1103.8 565.7 L1108.6 564.1 L1114.3 561.3 L1116.2 560.0 L1120.0 556.4 L1121.7 554.3 L1124.4 548.6 L1125.7 543.0 L1126.1 537.1 L1126.1 531.4 L1125.7 525.7 L1125.2 520.0 L1124.8 514.3 L1124.4 508.6 L1124.3 502.9 L1124.5 497.1 L1124.9 491.4 L1125.5 485.7 L1125.7 484.4 L1126.3 480.0 L1127.3 474.3 L1128.5 468.6 L1130.0 462.9 L1131.4 457.8 L1131.6 457.1 L1133.3 451.4 L1135.2 445.7 L1137.1 440.5 L1137.3 440.0 L1139.4 434.3 L1141.6 428.6 L1142.9 425.3 L1143.8 422.9 L1145.8 417.1 L1147.9 411.4 L1148.6 409.5 L1149.8 405.7 L1151.5 400.0 L1153.1 394.3 L1154.3 390.0 L1154.6 388.6 L1155.9 382.9 L1157.1 377.1 L1158.3 371.4 L1159.4 365.7 L1160.0 362.7 L1160.5 360.0 L1161.5 354.3 L1162.6 348.6 L1163.8 342.9 L1165.0 337.1 L1165.7 334.1 L1166.3 331.4 L1167.5 325.7 L1168.8 320.0 L1170.2 314.3 L1171.4 309.5 L1171.7 308.6 L1172.9 302.9 L1174.2 297.1 L1175.5 291.4 L1176.6 285.7 L1177.1 282.9 L1177.6 280.0 L1178.4 274.3 L1179.1 268.6 L1179.6 262.9 L1180.0 257.1 L1180.2 251.4 L1180.3 245.7 L1180.3 240.0 L1180.2 234.3 L1179.9 228.6 L1179.6 222.9 L1179.2 217.1 L1178.7 211.4 L1178.1 205.7 L1177.4 200.0 L1177.1 198.2 L1176.5 194.3 L1175.4 188.6 L1174.2 182.9 L1172.9 177.1 L1171.4 171.6 L1169.6 165.7 L1167.8 160.0 L1166.1 154.3 L1165.7 153.0 L1164.3 148.6 L1162.5 142.9 L1161.0 137.1 L1160.0 132.9 L1159.6 131.4 L1158.4 125.7 L1157.4 120.0 L1156.5 114.3 L1155.7 108.6 L1154.9 102.9 L1154.3 99.7 L1153.7 97.1 L1152.1 91.4 L1149.9 85.7 L1148.6 83.2 L1146.4 80.0 L1142.9 76.3 L1140.3 74.3 L1137.1 72.4 L1131.4 70.0 L1126.4 68.6 L1125.7 68.4 L1120.0 67.5 L1114.3 66.9 L1108.6 66.5 L1102.9 66.3 L1097.1 66.2 L1091.4 66.0 L1085.7 65.8 L1080.0 65.6 L1074.3 65.3 L1068.6 65.1 L1062.9 64.9 L1057.1 64.7 L1051.4 64.5 L1045.7 64.3 L1040.0 64.2 L1034.3 64.1 L1028.6 64.0 L1022.9 63.9 L1017.1 63.9 L1011.4 63.9 L1005.7 63.9 L1000.0 63.9 L994.3 63.9 L988.6 63.8 L982.9 63.8 L977.1 63.7 L971.4 63.7 L965.7 63.6 L960.0 63.4 L954.3 63.3 L948.6 63.1 L942.9 62.9 L939.9 62.9 L937.1 62.8 L931.4 62.7 L925.7 62.7 L920.0 62.7 L914.3 62.8 L911.8 62.9 L908.6 63.0 L902.9 63.3 L897.1 63.7 L891.4 64.2 L885.7 64.7 L880.0 65.3 L874.3 66.0 L868.6 66.6 L862.9 67.3 L857.1 67.9 L851.4 68.5 L850.9 68.6 L845.7 69.1 L840.0 69.7 L834.3 70.1 L828.6 70.4 L822.9 70.6 L817.1 70.6 L811.4 70.6 L805.7 70.3 L800.0 70.0 L794.3 69.5 L788.6 68.9 L785.6 68.6 L782.9 68.3 L777.1 67.6 L771.4 66.9 L765.7 66.1 L760.0 65.3 L754.3 64.6 L748.6 63.9 L742.9 63.2 L739.1 62.9 L737.1 62.7 L731.4 62.3 L725.7 61.9 L720.0 61.6 L714.3 61.4 L708.6 61.2 L702.9 61.0 L697.1 60.7 L691.4 60.4 L685.7 60.0 L680.0 59.5 L674.3 59.0 L668.6 58.3 L662.9 57.7 L657.5 57.1 L657.1 57.1 L651.4 56.7 L645.7 56.3 L640.0 56.2 L634.3 56.1 L628.6 56.2 L622.9 56.5 L617.1 57.0 L615.3 57.1 L611.4 57.5 L605.7 58.1 L600.0 58.8 L594.3 59.4 L588.6 60.1 L582.9 60.6 L577.1 61.0 L571.4 61.4 L565.7 61.5 L560.0 61.6 L554.3 61.5 L548.6 61.4 L542.9 61.1 L537.1 60.8 L531.4 60.4 L525.7 59.9 L520.0 59.4 L514.3 58.9 L508.6 58.5 L502.9 58.0 L497.1 57.5 L493.0 57.1 L491.4 57.0 L485.7 56.6 L480.0 56.1 L474.3 55.7 L468.6 55.4 L462.9 55.0 L457.1 54.6 L451.4 54.2 L445.7 53.8 L440.0 53.4 L434.3 53.0 L428.6 52.6 L422.9 52.1 L417.1 51.5 L416.5 51.4 L411.4 50.8 L405.7 50.1 L400.0 49.2 L394.3 48.1 L388.6 47.0 L383.1 45.7 L377.1 44.2 L371.4 42.6 L365.7 41.1 L361.6 40.0 L360.0 39.6 L354.3 38.1 L348.6 36.9 L342.9 35.8 L337.1 34.8 L333.1 34.3 L331.4 34.1 L325.7 33.4 L320.0 33.0 L314.3 32.8 L308.6 32.7 L302.9 32.7 L297.1 32.8 L291.4 33.0 L285.7 33.2 L280.0 33.4 L274.3 33.7 L268.6 33.9 L262.9 34.0 L257.1 34.2 L251.4 34.3 " fill="none" stroke="#8a6f4796" stroke-width="0.8" stroke-linecap="round"/>
<path d="M154.3 50.4 L149.1 51.4 L148.6 51.5 L142.9 53.3 L137.1 55.8 L134.9 57.1 L131.4 59.8 L128.3 62.9 L125.7 66.5 L124.5 68.6 L122.4 74.3 L121.5 80.0 L121.5 85.7 L122.0 91.4 L122.8 97.1 L123.9 102.9 L125.0 108.6 L125.7 112.4 L126.1 114.3 L127.0 120.0 L127.7 125.7 L128.0 131.4 L128.1 137.1 L127.8 142.9 L127.3 148.6 L126.5 154.3 L125.7 158.3 L125.4 160.0 L124.1 165.7 L122.6 171.4 L120.9 177.1 L120.0 179.9 L119.0 182.9 L117.0 188.6 L114.9 194.3 L114.3 195.9 L112.8 200.0 L110.7 205.7 L108.8 211.4 L108.6 212.3 L107.1 217.1 L105.7 222.9 L104.6 228.6 L103.9 234.3 L103.7 240.0 L103.9 245.7 L104.7 251.4 L106.0 257.1 L108.0 262.9 L108.6 264.2 L110.8 268.6 L114.3 273.8 L114.7 274.3 L119.9 280.0 L120.0 280.1 L125.7 284.8 L127.0 285.7 L131.4 288.7 L136.4 291.4 L137.1 291.8 L142.9 294.7 L148.6 297.1 L148.8 297.1 L154.3 299.5 L160.0 301.6 L163.7 302.9 L165.7 303.7 L171.4 305.8 L177.1 307.9 L178.8 308.6 L182.9 310.4 L188.6 313.0 L191.1 314.3 L194.3 316.2 L200.0 320.0 L200.0 320.0 L205.7 325.5 L205.9 325.7 L209.5 331.4 L211.4 336.1 L211.8 337.1 L212.8 342.9 L212.9 348.6 L212.5 354.3 L211.7 360.0 L211.4 361.3 L210.5 365.7 L209.2 371.4 L207.8 377.1 L206.5 382.9 L205.7 386.4 L205.2 388.6 L203.8 394.3 L202.4 400.0 L201.1 405.7 L200.0 410.6 L199.8 411.4 L198.4 417.1 L197.0 422.9 L195.7 428.6 L194.4 434.3 L194.3 434.8 L193.0 440.0 L191.7 445.7 L190.5 451.4 L189.3 457.1 L188.6 460.8 L188.1 462.9 L186.9 468.6 L185.8 474.3 L184.7 480.0 L183.6 485.7 L182.9 489.3 L182.4 491.4 L181.4 497.1 L180.4 502.9 L179.8 508.6 L179.5 514.3 L179.8 520.0 L180.8 525.7 L182.9 531.0 L183.0 531.4 L187.0 537.1 L188.6 538.6 L193.8 542.9 L194.3 543.2 L200.0 546.2 L205.7 548.6 L205.7 548.6 L211.4 550.3 L217.1 551.6 L222.9 552.5 L228.6 553.2 L234.3 553.8 L240.0 554.2 L241.7 554.3 L245.7 554.5 L251.4 554.8 L257.1 555.1 L262.9 555.5 L268.6 556.0 L274.3 556.5 L280.0 557.2 L285.7 558.0 L291.4 558.9 L297.1 559.8 L298.1 560.0 L302.9 560.8 L308.6 561.9 L314.3 563.0 L320.0 564.1 L325.7 565.3 L327.9 565.7 L331.4 566.4 L337.1 567.5 L342.9 568.5 L348.6 569.5 L354.3 570.5 L359.9 571.4 L360.0 571.4 L365.7 572.3 L371.4 573.1 L377.1 573.9 L382.9 574.6 L388.6 575.3 L394.3 576.0 L400.0 576.7 L403.6 577.1 L405.7 577.4 L411.4 578.0 L417.1 578.6 L422.9 579.2 L428.6 579.8 L434.3 580.4 L440.0 581.0 L445.7 581.5 L451.4 582.1 L457.1 582.6 L460.9 582.9 L462.9 583.0 L468.6 583.3 L474.3 583.5 L480.0 583.5 L485.7 583.3 L491.4 582.9 L497.1 582.1 L502.9 581.0 L508.6 579.5 L514.3 577.7 L515.7 577.1 L520.0 575.3 L525.7 572.7 L528.1 571.4 L531.4 569.5 L537.1 566.1 L537.7 565.7 L542.9 562.2 L546.2 560.0 L548.6 558.3 L554.3 554.6 L554.9 554.3 L560.0 551.5 L565.7 549.3 L568.7 548.6 L571.4 548.0 L577.1 547.5 L582.9 547.9 L586.7 548.6 L588.6 548.9 L594.3 550.4 L600.0 552.2 L605.7 554.2 L605.8 554.3 L611.4 556.4 L617.1 558.5 L621.2 560.0 L622.9 560.6 L628.6 562.6 L634.3 564.5 L638.2 565.7 L640.0 566.3 L645.7 567.9 L651.4 569.5 L657.1 570.8 L659.9 571.4 L662.9 572.0 L668.6 573.0 L674.3 573.9 L680.0 574.5 L685.7 574.9 L691.4 575.2 L697.1 575.4 L702.9 575.4 L708.6 575.4 L714.3 575.4 L720.0 575.4 L725.7 575.3 L731.4 575.4 L737.1 575.5 L742.9 575.7 L748.6 576.0 L754.3 576.3 L760.0 576.6 L765.7 577.0 L769.8 577.1 L771.4 577.2 L777.1 577.4 L782.9 577.4 L788.6 577.2 L794.3 576.7 L800.0 575.9 L805.7 574.8 L811.4 573.3 L816.8 571.4 L817.1 571.3 L822.9 568.8 L828.6 565.9 L834.3 562.4 L837.8 560.0 L840.0 558.2 L844.8 554.3 L845.7 553.4 L850.5 548.6 L851.4 547.5 L855.4 542.9 L857.1 540.3 L859.5 537.1 L862.9 531.5 L866.0 525.7 L868.5 520.0 L868.5 520.0 L870.9 514.3 L872.9 508.6 L874.3 504.4 L874.9 502.9 L876.9 497.1 L878.8 491.4 L880.0 487.7 L880.7 485.7 L882.7 480.0 L884.6 474.3 L885.7 470.9 L886.5 468.6 L888.6 462.9 L890.5 457.1 L891.4 454.2 L892.4 451.4 L894.5 445.7 L896.4 440.0 L897.1 437.7 L898.4 434.3 L900.4 428.6 L902.3 422.9 L902.9 421.2 L904.4 417.1 L906.4 411.4 L908.2 405.7 L908.6 404.6 L910.3 400.0 L912.2 394.3 L914.0 388.6 L914.3 387.8 L916.0 382.9 L918.0 377.1 L919.8 371.4 L920.0 370.8 L921.9 365.7 L923.8 360.0 L925.6 354.3 L925.6 354.3 L927.7 348.6 L929.6 342.9 L931.3 337.1 L931.4 336.7 L933.1 331.4 L934.6 325.7 L935.9 320.0 L936.9 314.3 L937.1 312.0 L937.6 308.6 L938.1 302.9 L938.2 297.1 L938.0 291.4 L937.3 285.7 L937.1 284.9 L936.3 280.0 L935.0 274.3 L933.3 268.6 L931.4 264.0 L931.0 262.9 L928.6 257.1 L925.7 251.7 L922.6 245.7 L920.0 241.4 L919.2 240.0 L915.7 234.3 L914.3 232.1 L912.1 228.6 L908.6 223.3 L908.3 222.9 L904.5 217.1 L902.9 214.8 L900.6 211.4 L897.1 206.7 L896.5 205.7 L892.1 200.0 L891.4 199.1 L887.6 194.3 L885.7 192.2 L882.5 188.6 L880.0 186.0 L876.7 182.9 L874.3 180.6 L870.0 177.1 L868.6 176.0 L862.9 172.1 L861.7 171.4 L857.1 168.7 L851.4 165.9 L851.0 165.7 L845.7 163.3 L840.0 161.2 L836.2 160.0 L834.3 159.3 L828.6 157.6 L822.9 156.1 L817.1 154.9 L814.4 154.3 L811.4 153.6 L805.7 152.3 L800.0 151.2 L794.3 150.1 L788.6 149.1 L785.5 148.6 L782.9 148.0 L777.1 146.9 L771.4 145.8 L765.7 144.7 L760.0 143.7 L755.0 142.9 L754.3 142.7 L748.6 141.5 L742.9 140.4 L737.1 139.4 L731.4 138.3 L725.7 137.3 L724.7 137.1 L720.0 136.1 L714.3 134.9 L708.6 133.7 L702.9 132.4 L698.6 131.4 L697.1 131.0 L691.4 129.3 L685.7 127.4 L681.2 125.7 L680.0 125.2 L674.3 122.1 L670.7 120.0 L668.6 118.3 L663.9 114.3 L662.9 113.2 L658.8 108.6 L657.1 106.6 L654.1 102.9 L651.4 99.9 L648.8 97.1 L645.7 94.5 L641.6 91.4 L640.0 90.5 L634.3 87.9 L628.6 86.1 L626.8 85.7 L622.9 85.1 L617.1 84.7 L611.4 84.6 L605.7 84.7 L600.0 85.1 L594.3 85.5 L591.1 85.7 L588.6 85.9 L582.9 86.5 L577.1 86.9 L571.4 87.2 L565.7 87.4 L560.0 87.4 L554.3 87.3 L548.6 87.1 L542.9 86.9 L537.1 86.5 L531.4 86.1 L527.0 85.7 L525.7 85.6 L520.0 85.2 L514.3 84.7 L508.6 84.3 L502.9 83.8 L497.1 83.3 L491.4 82.8 L485.7 82.4 L480.0 81.9 L474.3 81.5 L468.6 81.1 L462.9 80.7 L457.1 80.2 L453.8 80.0 L451.4 79.9 L445.7 79.5 L440.0 79.1 L434.3 78.8 L428.6 78.3 L422.9 77.9 L417.1 77.3 L411.4 76.5 L405.7 75.4 L401.1 74.3 L400.0 74.1 L394.3 72.5 L388.6 70.6 L383.7 68.6 L382.9 68.3 L377.1 65.9 L371.4 63.2 L370.7 62.9 L365.7 60.7 L360.0 58.2 L357.5 57.1 L354.3 55.9 L348.6 53.9 L342.9 52.1 L340.2 51.4 L337.1 50.6 L331.4 49.4 L325.7 48.5 L320.0 47.8 L314.3 47.4 L308.6 47.2 L302.9 47.1 L297.1 47.1 L291.4 47.2 L285.7 47.4 L280.0 47.6 L274.3 47.8 L268.6 48.0 L262.9 48.2 L257.1 48.3 L251.4 48.4 L245.7 48.5 L240.0 48.5 L234.3 48.5 L228.6 48.6 L222.9 48.6 L217.1 48.6 L211.4 48.6 L205.7 48.6 L200.0 48.6 L194.3 48.6 L188.6 48.6 L182.9 48.6 L177.1 48.7 L171.4 48.8 L165.7 49.1 L160.0 49.6 L154.3 50.4 " fill="none" stroke="#8a6f4796" stroke-width="0.8" stroke-linecap="round"/>
<path d="M182.9 62.8 L181.7 62.9 L177.1 63.0 L171.4 63.4 L165.7 64.1 L160.0 65.2 L154.3 66.9 L150.4 68.6 L148.6 69.6 L143.0 74.3 L139.9 80.0 L138.5 85.7 L138.1 91.4 L138.4 97.1 L139.0 102.9 L139.9 108.6 L140.7 114.3 L141.5 120.0 L142.1 125.7 L142.3 131.4 L142.4 137.1 L142.1 142.9 L141.6 148.6 L140.9 154.3 L139.9 160.0 L138.7 165.7 L137.3 171.4 L137.1 171.8 L135.7 177.1 L133.9 182.9 L132.0 188.6 L131.4 190.0 L129.9 194.3 L127.9 200.0 L125.8 205.7 L125.7 206.1 L124.1 211.4 L122.5 217.1 L121.3 222.9 L120.6 228.6 L120.5 234.3 L121.2 240.0 L122.7 245.7 L125.4 251.4 L125.7 252.0 L129.7 257.1 L131.4 258.9 L136.2 262.9 L137.1 263.5 L142.9 267.0 L146.1 268.6 L148.6 269.8 L154.3 272.2 L159.7 274.3 L160.0 274.4 L165.7 276.5 L171.4 278.6 L175.4 280.0 L177.1 280.6 L182.9 282.7 L188.6 284.9 L190.8 285.7 L194.3 287.1 L200.0 289.4 L204.7 291.4 L205.7 291.9 L211.4 294.6 L216.3 297.1 L217.1 297.6 L222.9 301.1 L225.5 302.9 L228.6 305.1 L232.9 308.6 L234.3 309.9 L238.7 314.3 L240.0 315.9 L243.2 320.0 L245.7 324.6 L246.4 325.7 L248.5 331.4 L249.7 337.1 L250.1 342.9 L250.1 348.6 L249.5 354.3 L248.7 360.0 L247.6 365.7 L246.2 371.4 L245.7 373.6 L244.9 377.1 L243.6 382.9 L242.3 388.6 L240.9 394.3 L240.0 397.8 L239.5 400.0 L238.2 405.7 L236.9 411.4 L235.5 417.1 L234.3 421.9 L234.1 422.9 L232.8 428.6 L231.4 434.3 L230.1 440.0 L228.6 445.7 L227.3 451.4 L226.0 457.1 L224.7 462.9 L223.2 468.6 L222.9 470.1 L221.9 474.3 L220.6 480.0 L219.3 485.7 L217.9 491.4 L217.1 494.8 L216.7 497.1 L216.0 502.9 L215.9 508.6 L216.8 514.3 L217.1 515.3 L219.4 520.0 L222.9 523.9 L225.1 525.7 L228.6 527.6 L234.3 529.8 L240.0 531.3 L240.5 531.4 L245.7 532.2 L251.4 532.8 L257.1 533.3 L262.9 533.7 L268.6 534.1 L274.3 534.6 L280.0 535.3 L285.7 536.0 L291.4 536.9 L292.6 537.1 L297.1 537.8 L302.9 538.7 L308.6 539.7 L314.3 540.8 L320.0 542.0 L324.0 542.9 L325.7 543.2 L331.4 544.2 L337.1 545.3 L342.9 546.4 L348.6 547.5 L354.2 548.6 L354.3 548.6 L360.0 549.4 L365.7 550.3 L371.4 551.1 L377.1 551.9 L382.9 552.7 L388.6 553.5 L394.3 554.3 L394.3 554.3 L400.0 554.9 L405.7 555.5 L411.4 556.1 L417.1 556.7 L422.9 557.3 L428.6 557.9 L434.3 558.5 L440.0 559.2 L445.7 559.8 L447.7 560.0 L451.4 560.3 L457.1 560.8 L462.9 561.1 L468.6 561.4 L474.3 561.5 L480.0 561.3 L485.7 560.8 L491.1 560.0 L491.1 560.0 L497.1 558.3 L502.9 556.1 L506.6 554.3 L508.6 553.1 L514.3 549.3 L515.2 548.6 L520.0 544.4 L521.7 542.9 L525.7 538.8 L527.4 537.1 L531.4 533.0 L533.2 531.4 L537.1 527.8 L540.0 525.7 L542.9 523.8 L548.6 521.0 L551.6 520.0 L554.3 519.2 L560.0 518.4 L565.7 518.3 L571.4 518.8 L577.1 519.9 L577.6 520.0 L582.9 521.4 L588.6 523.5 L593.9 525.7 L594.3 525.9 L600.0 528.5 L605.6 531.4 L605.7 531.5 L611.4 534.4 L616.4 537.1 L617.1 537.5 L622.9 540.5 L627.4 542.9 L628.6 543.4 L634.3 546.1 L639.6 548.6 L640.0 548.8 L645.7 551.0 L651.4 553.2 L654.7 554.3 L657.1 555.0 L662.9 556.6 L668.6 557.9 L674.3 559.0 L680.0 559.9 L680.9 560.0 L685.7 560.5 L691.4 560.9 L697.1 561.1 L702.9 561.2 L708.6 561.2 L714.3 561.2 L720.0 561.2 L725.7 561.2 L731.4 561.2 L737.1 561.3 L742.9 561.5 L748.6 561.8 L754.3 562.1 L760.0 562.4 L765.7 562.7 L771.4 562.9 L777.1 563.0 L782.9 562.9 L788.6 562.5 L794.3 561.7 L800.0 560.5 L801.9 560.0 L805.7 558.7 L811.4 556.2 L815.0 554.3 L817.1 552.9 L822.7 548.6 L822.7 548.6 L828.3 542.9 L828.6 542.5 L832.6 537.1 L834.3 534.4 L836.1 531.4 L839.0 525.7 L840.0 523.4 L841.5 520.0 L843.8 514.3 L845.7 508.9 L847.8 502.9 L849.8 497.1 L851.4 492.4 L851.8 491.4 L853.7 485.7 L855.7 480.0 L857.1 475.6 L857.6 474.3 L859.5 468.6 L861.5 462.9 L862.9 458.8 L863.4 457.1 L865.4 451.4 L867.3 445.7 L868.6 442.2 L869.3 440.0 L871.3 434.3 L873.3 428.6 L874.3 425.7 L875.3 422.9 L877.3 417.1 L879.2 411.4 L880.0 409.2 L881.2 405.7 L883.2 400.0 L885.1 394.3 L885.7 392.6 L887.1 388.6 L889.0 382.9 L890.9 377.1 L891.4 375.7 L892.9 371.4 L894.8 365.7 L896.7 360.0 L897.1 358.8 L898.7 354.3 L900.6 348.6 L902.5 342.9 L902.9 341.9 L904.4 337.1 L906.2 331.4 L907.8 325.7 L908.6 322.5 L909.2 320.0 L910.4 314.3 L911.2 308.6 L911.6 302.9 L911.7 297.1 L911.3 291.4 L910.4 285.7 L909.1 280.0 L908.6 278.4 L907.3 274.3 L905.0 268.6 L902.9 263.9 L902.4 262.9 L899.4 257.1 L897.1 253.1 L896.2 251.4 L892.7 245.7 L891.4 243.7 L889.1 240.0 L885.7 234.9 L885.3 234.3 L881.4 228.6 L880.0 226.6 L877.3 222.9 L874.3 218.9 L872.9 217.1 L868.6 212.0 L868.1 211.4 L862.9 205.9 L857.1 200.8 L856.2 200.0 L851.4 196.4 L848.3 194.3 L845.7 192.7 L840.0 189.6 L837.8 188.6 L834.3 187.0 L828.6 184.8 L822.9 182.9 L817.1 181.3 L811.4 179.9 L805.7 178.6 L800.0 177.4 L798.7 177.1 L794.3 176.3 L788.6 175.2 L782.9 174.1 L777.1 173.0 L771.4 172.0 L768.6 171.4 L765.7 170.9 L760.0 169.8 L754.3 168.7 L748.6 167.7 L742.9 166.6 L738.1 165.7 L737.1 165.5 L731.4 164.5 L725.7 163.4 L720.0 162.3 L714.3 161.3 L708.6 160.2 L707.2 160.0 L702.9 159.3 L697.1 158.3 L691.4 157.5 L685.7 156.8 L680.0 156.3 L674.3 156.0 L668.6 155.9 L662.9 156.2 L657.1 156.9 L651.4 158.0 L645.7 159.8 L645.1 160.0 L640.0 162.2 L634.3 165.5 L634.0 165.7 L628.6 169.7 L626.5 171.4 L622.9 174.7 L620.3 177.1 L617.1 180.4 L614.8 182.9 L611.4 186.5 L609.6 188.6 L605.7 192.9 L604.5 194.3 L600.0 199.5 L599.6 200.0 L594.6 205.7 L594.3 206.1 L589.6 211.4 L588.6 212.6 L584.6 217.1 L582.9 219.2 L579.6 222.9 L577.1 225.7 L574.6 228.6 L571.4 232.3 L569.7 234.3 L565.7 238.8 L564.7 240.0 L560.0 245.4 L559.7 245.7 L554.7 251.4 L554.3 251.9 L549.6 257.1 L548.6 258.3 L544.4 262.9 L542.9 264.5 L539.1 268.6 L537.1 270.6 L533.4 274.3 L531.4 276.2 L527.3 280.0 L525.7 281.4 L520.3 285.7 L514.3 289.7 L511.0 291.4 L508.6 292.7 L502.9 294.9 L497.1 296.3 L491.4 296.8 L485.7 296.5 L480.0 295.5 L474.3 294.1 L468.6 292.3 L466.2 291.4 L462.9 290.2 L457.1 288.0 L451.4 285.7 L445.7 283.4 L440.0 281.1 L437.1 280.0 L434.3 278.9 L428.6 276.6 L422.9 274.3 L417.1 271.9 L411.4 269.4 L409.6 268.6 L405.7 266.7 L400.0 263.6 L398.7 262.9 L394.3 259.9 L390.9 257.1 L388.6 255.1 L385.3 251.4 L382.9 248.1 L381.4 245.7 L378.6 240.0 L377.1 236.0 L376.6 234.3 L375.2 228.6 L374.1 222.9 L373.4 217.1 L372.7 211.4 L372.2 205.7 L371.8 200.0 L371.5 194.3 L371.4 192.9 L371.2 188.6 L371.0 182.9 L370.7 177.1 L370.5 171.4 L370.3 165.7 L370.1 160.0 L369.9 154.3 L369.8 148.6 L369.7 142.9 L369.6 137.1 L369.6 131.4 L369.6 125.7 L369.5 120.0 L369.4 114.3 L368.9 108.6 L367.9 102.9 L366.2 97.1 L365.7 96.2 L363.7 91.4 L360.1 85.7 L355.2 80.0 L354.3 79.2 L348.6 74.4 L342.9 70.9 L338.5 68.6 L337.1 68.0 L331.4 65.9 L325.7 64.2 L320.0 63.0 L319.2 62.9 L314.3 62.2 L308.6 61.7 L302.9 61.5 L297.1 61.4 L291.4 61.5 L285.7 61.6 L280.0 61.8 L274.3 62.0 L268.6 62.2 L262.9 62.3 L257.1 62.4 L251.4 62.5 L245.7 62.6 L240.0 62.6 L234.3 62.7 L228.6 62.7 L222.9 62.7 L217.1 62.7 L211.4 62.7 L205.7 62.7 L200.0 62.7 L194.3 62.7 L188.6 62.7 L182.9 62.8 " fill="none" stroke="#8a6f4796" stroke-width="0.8" stroke-linecap="round"/>
<path d="M177.1 84.0 L171.4 85.7 L165.7 89.8 L164.3 91.4 L161.7 97.1 L160.6 102.9 L160.5 108.6 L160.9 114.3 L161.5 120.0 L162.0 125.7 L162.2 131.4 L162.2 137.1 L162.0 142.9 L161.5 148.6 L160.7 154.3 L160.0 158.5 L159.8 160.0 L158.8 165.7 L157.6 171.4 L156.2 177.1 L154.4 182.9 L154.3 183.2 L152.8 188.6 L150.9 194.3 L148.8 200.0 L148.6 200.8 L147.1 205.7 L145.5 211.4 L144.4 217.1 L143.9 222.9 L144.5 228.6 L146.6 234.3 L148.6 237.3 L151.0 240.0 L154.3 242.7 L158.8 245.7 L160.0 246.4 L165.7 249.0 L171.4 251.4 L171.5 251.4 L177.1 253.4 L182.9 255.5 L187.2 257.1 L188.6 257.6 L194.3 259.6 L200.0 261.7 L203.0 262.9 L205.7 263.8 L211.4 265.8 L217.1 268.1 L218.4 268.6 L222.9 270.2 L228.6 272.4 L233.4 274.3 L234.3 274.6 L240.0 276.6 L245.7 278.6 L250.1 280.0 L251.4 280.4 L257.1 281.8 L262.9 282.9 L268.6 283.3 L274.3 283.1 L280.0 282.2 L285.7 280.6 L287.4 280.0 L291.4 278.5 L297.1 275.8 L300.1 274.3 L302.9 272.8 L308.6 269.3 L309.6 268.6 L314.3 265.1 L316.9 262.9 L320.0 260.0 L322.5 257.1 L325.7 252.9 L326.6 251.4 L329.5 245.7 L331.4 240.7 L331.7 240.0 L333.1 234.3 L334.0 228.6 L334.7 222.9 L335.1 217.1 L335.3 211.4 L335.3 205.7 L335.3 200.0 L335.1 194.3 L334.9 188.6 L334.7 182.9 L334.4 177.1 L334.2 171.4 L334.0 165.7 L333.8 160.0 L333.7 154.3 L333.6 148.6 L333.5 142.9 L333.4 137.1 L333.4 131.4 L333.3 125.7 L333.3 120.0 L333.2 114.3 L332.7 108.6 L331.5 102.9 L329.1 97.1 L325.7 92.2 L325.0 91.4 L320.0 87.5 L316.8 85.7 L314.3 84.7 L308.6 83.1 L302.9 82.0 L297.1 81.5 L291.4 81.2 L285.7 81.2 L280.0 81.4 L274.3 81.6 L268.6 81.7 L262.9 81.9 L257.1 82.0 L251.4 82.1 L245.7 82.2 L240.0 82.2 L234.3 82.2 L228.6 82.3 L222.9 82.3 L217.1 82.3 L211.4 82.3 L205.7 82.3 L200.0 82.3 L194.3 82.4 L188.6 82.6 L182.9 83.1 L177.1 84.0 " fill="none" stroke="#8a6f4796" stroke-width="0.8" stroke-linecap="round"/>
<path d="M668.6 187.3 L665.1 188.6 L662.9 189.6 L657.1 192.9 L655.1 194.3 L651.4 197.1 L648.0 200.0 L645.7 202.1 L642.1 205.7 L640.0 207.9 L636.7 211.4 L634.3 214.1 L631.6 217.1 L628.6 220.6 L626.6 222.9 L622.9 227.1 L621.6 228.6 L617.1 233.7 L616.6 234.3 L611.6 240.0 L606.7 245.7 L605.7 246.8 L601.7 251.4 L600.0 253.4 L596.7 257.1 L594.3 259.9 L591.8 262.9 L588.6 266.5 L586.8 268.6 L582.9 273.0 L581.8 274.3 L577.1 279.6 L576.8 280.0 L571.8 285.7 L571.4 286.2 L566.9 291.4 L565.7 292.9 L562.1 297.1 L560.0 299.7 L557.4 302.9 L554.3 306.8 L552.9 308.6 L548.6 314.3 L544.8 320.0 L542.9 323.3 L541.4 325.7 L538.6 331.4 L537.1 335.4 L536.5 337.1 L535.1 342.9 L534.3 348.6 L534.1 354.3 L534.5 360.0 L535.2 365.7 L536.2 371.4 L537.1 376.3 L537.3 377.1 L538.6 382.9 L539.9 388.6 L541.2 394.3 L542.5 400.0 L542.9 401.8 L543.8 405.7 L545.0 411.4 L546.3 417.1 L547.6 422.9 L548.6 427.2 L548.9 428.6 L550.2 434.3 L551.5 440.0 L552.9 445.7 L554.3 450.9 L554.4 451.4 L556.3 457.1 L558.7 462.9 L560.0 465.3 L561.8 468.6 L565.7 474.0 L565.9 474.3 L571.4 479.9 L571.6 480.0 L577.1 484.3 L579.0 485.7 L582.9 488.1 L588.0 491.4 L588.6 491.7 L594.3 495.0 L597.8 497.1 L600.0 498.3 L605.7 501.7 L607.5 502.9 L611.4 505.1 L616.7 508.6 L617.1 508.8 L622.9 512.4 L625.7 514.3 L628.6 516.1 L634.3 519.8 L634.7 520.0 L640.0 523.1 L644.4 525.7 L645.7 526.4 L651.4 529.3 L655.7 531.4 L657.1 532.1 L662.9 534.3 L668.6 536.4 L671.0 537.1 L674.3 538.0 L680.0 539.2 L685.7 540.1 L691.4 540.8 L697.1 541.2 L702.9 541.5 L708.6 541.6 L714.3 541.6 L720.0 541.6 L725.7 541.6 L731.4 541.7 L737.1 541.8 L742.9 542.0 L748.6 542.2 L754.3 542.6 L758.8 542.9 L760.0 542.9 L765.7 543.2 L771.4 543.3 L777.1 543.2 L780.6 542.9 L782.9 542.6 L788.6 541.4 L794.3 539.4 L798.9 537.1 L800.0 536.5 L805.7 531.8 L806.1 531.4 L810.6 525.7 L811.4 524.4 L813.9 520.0 L816.6 514.3 L817.1 512.9 L818.7 508.6 L820.7 502.9 L822.8 497.1 L822.8 497.1 L824.7 491.4 L826.6 485.7 L828.6 480.4 L828.7 480.0 L830.5 474.3 L832.5 468.6 L834.3 463.6 L834.5 462.9 L836.4 457.1 L838.3 451.4 L840.0 446.8 L840.4 445.7 L842.2 440.0 L844.2 434.3 L845.7 430.2 L846.2 428.6 L848.1 422.9 L850.2 417.1 L851.4 413.7 L852.2 411.4 L854.1 405.7 L856.1 400.0 L857.1 397.3 L858.1 394.3 L860.0 388.6 L862.0 382.9 L862.9 380.5 L863.9 377.1 L865.8 371.4 L867.8 365.7 L868.6 363.6 L869.7 360.0 L871.6 354.3 L873.6 348.6 L874.3 346.7 L875.5 342.9 L877.4 337.1 L879.3 331.4 L880.0 329.1 L881.0 325.7 L882.4 320.0 L883.7 314.3 L884.6 308.6 L885.1 302.9 L885.1 297.1 L884.4 291.4 L883.1 285.7 L881.4 280.0 L880.0 276.3 L879.1 274.3 L876.3 268.6 L874.3 264.7 L873.2 262.9 L869.8 257.1 L868.6 255.0 L866.2 251.4 L862.9 246.2 L862.5 245.7 L858.4 240.0 L857.1 238.3 L854.0 234.3 L851.4 231.2 L849.0 228.6 L845.7 225.2 L843.2 222.9 L840.0 220.2 L835.9 217.1 L834.3 216.0 L828.6 212.8 L825.8 211.4 L822.9 210.2 L817.1 208.1 L811.4 206.3 L809.3 205.7 L805.7 204.8 L800.0 203.6 L794.3 202.5 L788.6 201.3 L782.9 200.2 L782.1 200.0 L777.1 199.1 L771.4 198.1 L765.7 197.1 L760.0 196.0 L754.3 194.8 L751.6 194.3 L748.6 193.8 L742.9 192.7 L737.1 191.7 L731.4 190.6 L725.7 189.5 L721.1 188.6 L720.0 188.4 L714.3 187.4 L708.6 186.5 L702.9 185.7 L697.1 185.0 L691.4 184.6 L685.7 184.5 L680.0 184.8 L674.3 185.7 L668.6 187.3 " fill="none" stroke="#8a6f4796" stroke-width="0.8" stroke-linecap="round"/>
<path d="M898.2 362.5 L848.9 507.5 L855.4 581.1 L917.5 583.2 L949.3 585.0 L950.7 586.4 L959.3 587.1 L975.0 587.1 L983.6 587.9 L985.0 589.3 L1011.4 590.0 L1062.9 590.0 L1089.3 589.3 L1090.7 587.9 L1098.6 587.1 L1112.9 587.1 L1120.7 586.4 L1122.1 585.0 L1134.3 584.3 L1157.1 584.3 L1161.8 570.4 L1148.2 542.5 L1142.9 512.1 L1145.7 479.3 L1152.1 452.1 L1162.1 430.7 L1137.5 390.4 L1078.2 331.1 L1035.0 300.7 L1007.9 299.3 L993.6 297.9 L992.1 296.4 L985.0 295.7 L972.1 295.7 L965.0 295.0 L963.6 293.6 L955.7 292.9 L941.4 292.9 L931.4 292.1 L925.7 290.7 Z" fill="none" stroke="#4a38225a" stroke-width="0.9" stroke-linecap="round" stroke-dasharray="5.0 4.0"/>
<path d="M1160.4 218.2 L1086.8 274.6 L1078.9 331.8 L1136.8 389.6 L1167.5 416.8 L1171.1 413.2 L1175.7 391.4 L1181.4 351.4 L1188.6 317.1 L1197.1 288.6 L1200.4 253.2 L1198.2 211.1 Z" fill="none" stroke="#4a38225a" stroke-width="0.9" stroke-linecap="round" stroke-dasharray="5.0 4.0"/>
<path d="M354.6 97.5 L355.4 198.2 L398.2 265.4 L483.2 298.9 L561.1 274.6 L631.8 192.5 L662.1 126.4 L652.1 76.4 L646.1 51.1 L643.9 50.4 L629.3 53.6 L602.1 60.7 L577.1 64.3 L554.3 64.3 L542.1 63.6 L540.7 62.1 L533.6 61.4 L520.7 61.4 L513.6 60.7 L512.1 59.3 L490.7 57.9 L449.3 56.4 L427.9 55.0 L426.4 53.6 L420.7 52.9 L410.7 52.9 L405.0 52.1 L403.6 50.7 L390.7 49.3 L366.4 47.9 Z" fill="none" stroke="#4a38225a" stroke-width="0.9" stroke-linecap="round" stroke-dasharray="5.0 4.0"/>
<path d="M630.4 193.9 L559.6 276.1 L535.0 364.3 L556.4 458.6 L595.4 524.6 L651.8 562.5 L680.7 580.7 L682.1 579.3 L687.9 578.6 L697.9 578.6 L703.6 577.9 L705.0 576.4 L717.1 575.7 L740.0 575.7 L752.1 576.4 L753.6 577.9 L761.4 578.6 L775.7 578.6 L783.6 579.3 L785.0 580.7 L795.0 581.4 L813.6 581.4 L847.5 508.2 L896.8 361.8 L905.4 263.9 L873.2 214.6 L809.3 180.7 L713.6 162.1 Z" fill="none" stroke="#4a38225a" stroke-width="0.9" stroke-linecap="round" stroke-dasharray="5.0 4.0"/>
<path d="M86.8 262.5 L77.5 281.8 L80.0 302.1 L94.3 323.6 L100.0 352.9 L97.1 390.0 L105.7 425.0 L125.7 457.9 L133.6 490.0 L129.3 521.4 L122.1 548.6 L112.1 571.4 L108.9 583.2 L112.5 583.9 L115.0 583.6 L116.4 582.1 L120.0 581.4 L125.7 581.4 L142.5 578.2 L170.4 571.8 L199.3 502.9 L229.3 371.4 L222.5 298.2 L178.9 283.2 L155.0 274.3 L150.7 271.4 L138.6 267.1 L118.6 261.4 L106.4 257.1 L102.1 254.3 L97.9 252.9 L93.6 252.9 Z" fill="none" stroke="#4a38225a" stroke-width="0.9" stroke-linecap="round" stroke-dasharray="5.0 4.0"/>
<path d="M293.6 47.9 L292.1 49.3 L247.9 50.0 L160.7 50.0 L113.9 51.1 L107.5 53.2 L106.4 60.7 L110.7 73.6 L117.1 86.4 L125.7 99.3 L130.7 114.3 L132.1 131.4 L130.7 150.7 L126.4 172.1 L116.4 200.0 L100.7 234.3 L129.6 264.6 L203.2 291.1 L242.1 304.3 L246.4 304.3 L275.4 290.4 L328.9 262.5 L355.0 198.6 L353.6 98.6 L338.2 48.2 L308.9 47.5 Z" fill="none" stroke="#4a38225a" stroke-width="0.9" stroke-linecap="round" stroke-dasharray="5.0 4.0"/>
<path d="M905.0 45.0 L903.6 46.4 L899.3 47.1 L892.1 47.1 L887.5 49.6 L885.4 54.6 L877.9 91.4 L865.0 160.0 L874.6 218.2 L906.8 266.1 L925.7 290.7 L931.4 292.1 L941.4 292.9 L955.7 292.9 L963.6 293.6 L965.0 295.0 L972.1 295.7 L985.0 295.7 L992.1 296.4 L993.6 297.9 L1001.4 298.6 L1015.7 298.6 L1023.6 299.3 L1025.0 300.7 L1032.9 301.4 L1047.1 301.4 L1089.6 273.9 L1160.4 218.9 L1195.0 185.0 L1193.6 172.1 L1187.9 155.0 L1177.9 133.6 L1174.3 105.0 L1177.1 69.3 L1153.2 51.1 L1102.5 50.4 L1076.4 49.3 L1075.0 47.9 L1040.0 47.1 L971.4 47.1 L936.4 46.4 L935.0 45.0 L927.1 44.3 L912.9 44.3 Z" fill="none" stroke="#4a38225a" stroke-width="0.9" stroke-linecap="round" stroke-dasharray="5.0 4.0"/>
<path d="M324.6 263.9 L271.1 291.8 L229.3 370.7 L199.3 500.7 L207.5 565.4 L253.9 564.6 L277.9 565.0 L279.3 566.4 L283.6 567.1 L290.7 567.1 L297.9 568.6 L305.0 571.4 L311.4 572.9 L317.1 572.9 L327.1 575.0 L341.4 579.3 L352.9 581.4 L361.4 581.4 L366.4 582.1 L367.9 583.6 L387.1 585.7 L424.3 588.6 L443.6 590.7 L445.0 592.1 L452.1 592.9 L465.0 592.9 L472.1 593.6 L473.6 595.0 L485.0 595.7 L506.4 595.7 L529.6 573.9 L554.6 530.4 L557.1 462.1 L537.1 369.3 L525.4 320.4 L521.8 315.4 L480.7 297.1 L402.1 265.7 L360.0 250.0 L354.3 250.0 Z" fill="none" stroke="#4a38225a" stroke-width="0.9" stroke-linecap="round" stroke-dasharray="5.0 4.0"/>
<path d="M665.4 46.1 L653.2 49.6 L651.4 75.7 L660.0 124.3 L666.1 150.4 L669.6 153.9 L686.4 157.9 L716.4 162.1 L732.1 165.0 L733.6 166.4 L745.0 168.6 L766.4 171.4 L785.0 175.0 L800.7 179.3 L812.1 181.4 L819.3 181.4 L830.7 183.6 L846.4 187.9 L862.1 154.3 L877.9 82.9 L879.3 47.9 L866.4 49.3 L859.3 50.7 L857.9 52.1 L852.1 52.9 L842.1 52.9 L836.4 53.6 L835.0 55.0 L825.7 55.7 L808.6 55.7 L799.3 55.0 L797.9 53.6 L785.0 51.4 L760.7 48.6 L747.9 46.4 L746.4 45.0 L727.1 44.3 L690.0 44.3 Z" fill="none" stroke="#4a38225a" stroke-width="0.9" stroke-linecap="round" stroke-dasharray="5.0 4.0"/>
<path d="M557.5 525.4 L535.4 561.8 L523.2 583.9 L521.1 591.8 L533.6 595.0 L560.7 593.6 L575.0 592.1 L576.4 590.7 L583.6 590.0 L596.4 590.0 L603.6 589.3 L605.0 587.9 L623.6 585.7 L659.3 582.9 L650.0 562.9 L595.7 525.7 Z" fill="none" stroke="#4a38225a" stroke-width="0.9" stroke-linecap="round" stroke-dasharray="5.0 4.0"/>
<path d="M650.7 49.3 L609.3 59.3 L577.1 64.3 L554.3 64.3 L542.1 63.6 L540.7 62.1 L525.0 60.7 L495.0 59.3 L479.3 57.9 L477.9 56.4 L465.0 55.7 L440.7 55.7 L427.9 55.0 L426.4 53.6 L413.6 52.1 L389.3 50.7 L376.4 49.3 L375.0 47.9 L310.0 47.9 L181.4 49.3 L114.3 50.7 L108.6 52.1 L105.4 55.4 L104.6 60.4 L111.4 75.7 L125.7 101.4 L132.1 126.4 L130.7 150.7 L115.7 195.0 L87.1 259.3 L80.0 302.1 L94.3 323.6 L100.0 352.9 L97.1 390.0 L105.7 425.0 L125.7 457.9 L134.3 487.1 L131.4 512.9 L124.6 540.4 L113.9 569.6 L120.7 582.1 L145.0 577.9 L164.3 573.6 L178.6 569.3 L189.3 567.1 L196.4 567.1 L200.7 566.4 L202.1 565.0 L221.4 564.3 L258.6 564.3 L295.0 568.6 L330.7 577.1 L365.0 582.9 L397.9 585.7 L415.0 587.9 L416.4 589.3 L423.6 590.0 L436.4 590.0 L443.6 590.7 L445.0 592.1 L452.1 592.9 L465.0 592.9 L472.1 593.6 L473.6 595.0 L499.3 595.0 L549.3 593.6 L575.0 592.1 L576.4 590.7 L583.6 590.0 L596.4 590.0 L603.6 589.3 L605.0 587.9 L630.0 585.0 L678.6 580.7 L703.6 577.9 L705.0 576.4 L717.1 575.7 L740.0 575.7 L752.1 576.4 L753.6 577.9 L761.4 578.6 L775.7 578.6 L783.6 579.3 L785.0 580.7 L813.6 581.4 L869.3 581.4 L897.9 582.1 L899.3 583.6 L912.1 584.3 L936.4 584.3 L949.3 585.0 L950.7 586.4 L959.3 587.1 L975.0 587.1 L983.6 587.9 L985.0 589.3 L1011.4 590.0 L1062.9 590.0 L1089.3 589.3 L1090.7 587.9 L1098.6 587.1 L1112.9 587.1 L1120.7 586.4 L1122.1 585.0 L1134.3 584.3 L1157.1 584.3 L1161.8 570.4 L1148.2 542.5 L1141.4 519.3 L1141.4 500.7 L1143.6 482.1 L1147.9 463.6 L1155.7 443.6 L1167.1 422.1 L1175.7 391.4 L1181.4 351.4 L1188.6 317.1 L1197.1 288.6 L1200.0 249.3 L1197.1 199.3 L1190.0 161.4 L1178.6 135.7 L1174.3 105.0 L1177.1 69.3 L1153.2 51.1 L1102.5 50.4 L1076.4 49.3 L1075.0 47.9 L1040.0 47.1 L971.4 47.1 L936.4 46.4 L935.0 45.0 L927.1 44.3 L912.9 44.3 L905.0 45.0 L903.6 46.4 L896.4 47.1 L883.6 47.1 L872.1 48.6 L862.1 51.4 L852.1 52.9 L842.1 52.9 L836.4 53.6 L835.0 55.0 L825.7 55.7 L808.6 55.7 L799.3 55.0 L797.9 53.6 L785.0 51.4 L760.7 48.6 L747.9 46.4 L746.4 45.0 L727.1 44.3 L690.0 44.3 Z" fill="none" stroke="#4a3822" stroke-width="2.2" stroke-linecap="round"/>
<path d="M650.7 49.3 L609.3 59.3 L577.1 64.3 L554.3 64.3 L542.1 63.6 L540.7 62.1 L525.0 60.7 L495.0 59.3 L479.3 57.9 L477.9 56.4 L465.0 55.7 L440.7 55.7 L427.9 55.0 L426.4 53.6 L413.6 52.1 L389.3 50.7 L376.4 49.3 L375.0 47.9 L310.0 47.9 L181.4 49.3 L114.3 50.7 L108.6 52.1 L105.4 55.4 L104.6 60.4 L111.4 75.7 L125.7 101.4 L132.1 126.4 L130.7 150.7 L115.7 195.0 L87.1 259.3 L80.0 302.1 L94.3 323.6 L100.0 352.9 L97.1 390.0 L105.7 425.0 L125.7 457.9 L134.3 487.1 L131.4 512.9 L124.6 540.4 L113.9 569.6 L120.7 582.1 L145.0 577.9 L164.3 573.6 L178.6 569.3 L189.3 567.1 L196.4 567.1 L200.7 566.4 L202.1 565.0 L221.4 564.3 L258.6 564.3 L295.0 568.6 L330.7 577.1 L365.0 582.9 L397.9 585.7 L415.0 587.9 L416.4 589.3 L423.6 590.0 L436.4 590.0 L443.6 590.7 L445.0 592.1 L452.1 592.9 L465.0 592.9 L472.1 593.6 L473.6 595.0 L499.3 595.0 L549.3 593.6 L575.0 592.1 L576.4 590.7 L583.6 590.0 L596.4 590.0 L603.6 589.3 L605.0 587.9 L630.0 585.0 L678.6 580.7 L703.6 577.9 L705.0 576.4 L717.1 575.7 L740.0 575.7 L752.1 576.4 L753.6 577.9 L761.4 578.6 L775.7 578.6 L783.6 579.3 L785.0 580.7 L813.6 581.4 L869.3 581.4 L897.9 582.1 L899.3 583.6 L912.1 584.3 L936.4 584.3 L949.3 585.0 L950.7 586.4 L959.3 587.1 L975.0 587.1 L983.6 587.9 L985.0 589.3 L1011.4 590.0 L1062.9 590.0 L1089.3 589.3 L1090.7 587.9 L1098.6 587.1 L1112.9 587.1 L1120.7 586.4 L1122.1 585.0 L1134.3 584.3 L1157.1 584.3 L1161.8 570.4 L1148.2 542.5 L1141.4 519.3 L1141.4 500.7 L1143.6 482.1 L1147.9 463.6 L1155.7 443.6 L1167.1 422.1 L1175.7 391.4 L1181.4 351.4 L1188.6 317.1 L1197.1 288.6 L1200.0 249.3 L1197.1 199.3 L1190.0 161.4 L1178.6 135.7 L1174.3 105.0 L1177.1 69.3 L1153.2 51.1 L1102.5 50.4 L1076.4 49.3 L1075.0 47.9 L1040.0 47.1 L971.4 47.1 L936.4 46.4 L935.0 45.0 L927.1 44.3 L912.9 44.3 L905.0 45.0 L903.6 46.4 L896.4 47.1 L883.6 47.1 L872.1 48.6 L862.1 51.4 L852.1 52.9 L842.1 52.9 L836.4 53.6 L835.0 55.0 L825.7 55.7 L808.6 55.7 L799.3 55.0 L797.9 53.6 L785.0 51.4 L760.7 48.6 L747.9 46.4 L746.4 45.0 L727.1 44.3 L690.0 44.3 Z" fill="none" stroke="#4a382246" stroke-width="5.5" stroke-linecap="round"/>
<path d="M1003.8 460.1 Q856.7 267.1 497.1 165.2" fill="none" stroke="#7a5a38aa" stroke-width="2.4"/>
<path d="M1003.8 460.1 Q897.0 389.4 724.6 368.9" fill="none" stroke="#7a5a38aa" stroke-width="2.1"/>
<path d="M1144.8 305.1 Q716.0 303.2 383.1 438.3" fill="none" stroke="#7a5a38aa" stroke-width="1.9"/>
<path d="M1144.8 305.1 Q740.0 154.9 236.5 168.1" fill="none" stroke="#7a5a38aa" stroke-width="1.3"/>
<path d="M497.1 165.2 Q365.8 143.2 236.5 168.1" fill="none" stroke="#7a5a38aa" stroke-width="2.6"/>
<path d="M497.1 165.2 Q341.8 291.5 383.1 438.3" fill="none" stroke="#7a5a38aa" stroke-width="2.6"/>
<path d="M724.6 368.9 Q552.8 224.6 236.5 168.1" fill="none" stroke="#7a5a38aa" stroke-width="2.6"/>
<path d="M724.6 368.9 Q684.2 246.6 497.1 165.2" fill="none" stroke="#7a5a38aa" stroke-width="2.6"/>
<path d="M160.3 399.1 Q453.3 434.8 724.6 368.9" fill="none" stroke="#7a5a38aa" stroke-width="2.1"/>
<path d="M160.3 399.1 Q281.5 290.5 236.5 168.1" fill="none" stroke="#7a5a38aa" stroke-width="1.9"/>
<path d="M236.5 168.1 Q408.2 312.4 724.6 368.9" fill="none" stroke="#7a5a38aa" stroke-width="2.6"/>
<path d="M236.5 168.1 Q367.9 190.1 497.1 165.2" fill="none" stroke="#7a5a38aa" stroke-width="2.2"/>
<path d="M1022.4 164.2 Q628.1 95.4 236.5 168.1" fill="none" stroke="#7a5a38aa" stroke-width="2.2"/>
<path d="M1022.4 164.2 Q799.8 239.8 724.6 368.9" fill="none" stroke="#7a5a38aa" stroke-width="1.9"/>
<path d="M383.1 438.3 Q578.8 434.4 724.6 368.9" fill="none" stroke="#7a5a38aa" stroke-width="2.6"/>
<path d="M383.1 438.3 Q407.1 290.0 236.5 168.1" fill="none" stroke="#7a5a38aa" stroke-width="2.6"/>
<path d="M769.6 109.6 Q613.4 112.9 497.1 165.2" fill="none" stroke="#7a5a38aa" stroke-width="2.4"/>
<path d="M769.6 109.6 Q653.7 235.2 724.6 368.9" fill="none" stroke="#7a5a38aa" stroke-width="2.3"/>
<path d="M588.9 562.9 Q686.2 355.8 497.1 165.2" fill="none" stroke="#7a5a38aa" stroke-width="1.9"/>
<path d="M588.9 562.9 Q726.6 478.1 724.6 368.9" fill="none" stroke="#7a5a38aa" stroke-width="1.5"/>
<text x="715.7" y="347.1" font-family="'DejaVu Serif',Georgia,serif" font-size="11.0" fill="#4a3822" text-anchor="middle" font-weight="bold" stroke="#e9dec4c8" stroke-width="2.5" paint-order="stroke" stroke-linejoin="round">crates/c2m-core</text>
<text x="715.7" y="332.8" font-family="'DejaVu Sans',Verdana,sans-serif" font-size="9.9" fill="#8a6f47" text-anchor="middle">▲</text>
<text x="238.6" y="187.1" font-family="'DejaVu Serif',Georgia,serif" font-size="11.0" fill="#4a3822" text-anchor="middle" font-weight="bold" stroke="#e9dec4c8" stroke-width="2.5" paint-order="stroke" stroke-linejoin="round">crates/c2m-index</text>
<text x="238.6" y="172.8" font-family="'DejaVu Sans',Verdana,sans-serif" font-size="9.9" fill="#8a6f47" text-anchor="middle">▲</text>
<text x="381.4" y="421.4" font-family="'DejaVu Serif',Georgia,serif" font-size="11.0" fill="#4a3822" text-anchor="middle" font-weight="bold" stroke="#e9dec4c8" stroke-width="2.5" paint-order="stroke" stroke-linejoin="round">crates/c2m-render</text>
<text x="501.4" y="184.3" font-family="'DejaVu Serif',Georgia,serif" font-size="11.0" fill="#4a3822" text-anchor="middle" font-weight="bold" stroke="#e9dec4c8" stroke-width="2.5" paint-order="stroke" stroke-linejoin="round">crates/c2m-cli</text>
<text x="1012.9" y="441.4" font-family="'DejaVu Serif',Georgia,serif" font-size="11.0" fill="#4a3822" text-anchor="middle" font-weight="bold" stroke="#e9dec4c8" stroke-width="2.5" paint-order="stroke" stroke-linejoin="round">/</text>
<text x="1027.1" y="175.7" font-family="'DejaVu Serif',Georgia,serif" font-size="11.0" fill="#4a3822" text-anchor="middle" font-weight="bold" stroke="#e9dec4c8" stroke-width="2.5" paint-order="stroke" stroke-linejoin="round">crates/c2m-layout</text>
<text x="170.0" y="347.1" font-family="'DejaVu Serif',Georgia,serif" font-size="11.0" fill="#4a3822" text-anchor="middle" font-weight="bold" stroke="#e9dec4c8" stroke-width="2.5" paint-order="stroke" stroke-linejoin="round">crates/c2m-eval</text>
<text x="735.7" y="107.1" font-family="'DejaVu Serif',Georgia,serif" font-size="11.0" fill="#4a3822" text-anchor="middle" font-weight="bold" stroke="#e9dec4c8" stroke-width="2.5" paint-order="stroke" stroke-linejoin="round">docs</text>
<text x="1127.1" y="312.9" font-family="'DejaVu Serif',Georgia,serif" font-size="11.0" fill="#4a3822" text-anchor="middle" font-weight="bold" stroke="#e9dec4c8" stroke-width="2.5" paint-order="stroke" stroke-linejoin="round">assets</text>
<text x="578.6" y="552.9" font-family="'DejaVu Serif',Georgia,serif" font-size="11.0" fill="#4a3822" text-anchor="middle" font-weight="bold" stroke="#e9dec4c8" stroke-width="2.5" paint-order="stroke" stroke-linejoin="round">skills</text>
<circle cx="1012.9" cy="441.4" r="3.1" fill="#4a3822"/>
<circle cx="949.9" cy="465.9" r="2.3" fill="#4a3822"/>
<circle cx="1075.9" cy="420.4" r="2.0" fill="#4a3822"/>
<circle cx="1127.1" cy="312.9" r="3.1" fill="#4a3822"/>
<circle cx="1097.6" cy="324.4" r="2.3" fill="#4a3822"/>
<circle cx="501.4" cy="184.3" r="3.1" fill="#4a3822"/>
<circle cx="446.1" cy="205.8" r="2.3" fill="#4a3822"/>
<text x="446.1" y="216.7" font-family="'DejaVu Serif',Georgia,serif" font-size="9.0" fill="#4a3822" text-anchor="middle" stroke="#e9dec4be" stroke-width="2.5" paint-order="stroke" stroke-linejoin="round">ops.rs</text>
<circle cx="556.7" cy="165.9" r="2.0" fill="#4a3822"/>
<circle cx="715.7" cy="347.1" r="3.1" fill="#4a3822"/>
<circle cx="633.4" cy="379.1" r="2.3" fill="#4a3822"/>
<text x="633.4" y="390.0" font-family="'DejaVu Serif',Georgia,serif" font-size="9.0" fill="#4a3822" text-anchor="middle" stroke="#e9dec4be" stroke-width="2.5" paint-order="stroke" stroke-linejoin="round">history.rs</text>
<circle cx="798.0" cy="319.7" r="2.0" fill="#4a3822"/>
<text x="798.0" y="330.2" font-family="'DejaVu Serif',Georgia,serif" font-size="9.0" fill="#4a3822" text-anchor="middle" stroke="#e9dec4be" stroke-width="2.5" paint-order="stroke" stroke-linejoin="round">graph.rs</text>
<circle cx="170.0" cy="347.1" r="3.1" fill="#4a3822"/>
<circle cx="140.4" cy="358.6" r="2.3" fill="#4a3822"/>
<circle cx="199.6" cy="337.3" r="2.0" fill="#4a3822"/>
<circle cx="238.6" cy="187.1" r="3.1" fill="#4a3822"/>
<circle cx="187.1" cy="207.1" r="2.3" fill="#4a3822"/>
<text x="187.1" y="218.0" font-family="'DejaVu Serif',Georgia,serif" font-size="9.0" fill="#4a3822" text-anchor="middle" stroke="#e9dec4be" stroke-width="2.5" paint-order="stroke" stroke-linejoin="round">cache.rs</text>
<circle cx="290.0" cy="170.0" r="2.0" fill="#4a3822"/>
<circle cx="1027.1" cy="175.7" r="3.1" fill="#4a3822"/>
<circle cx="970.6" cy="197.7" r="2.3" fill="#4a3822"/>
<text x="970.6" y="208.6" font-family="'DejaVu Serif',Georgia,serif" font-size="9.0" fill="#4a3822" text-anchor="middle" stroke="#e9dec4be" stroke-width="2.5" paint-order="stroke" stroke-linejoin="round">grid.rs</text>
<circle cx="1083.7" cy="156.9" r="2.0" fill="#4a3822"/>
<circle cx="381.4" cy="421.4" r="3.1" fill="#4a3822"/>
<circle cx="309.4" cy="449.4" r="2.3" fill="#4a3822"/>
<text x="309.4" y="460.3" font-family="'DejaVu Serif',Georgia,serif" font-size="9.0" fill="#4a3822" text-anchor="middle" stroke="#e9dec4be" stroke-width="2.5" paint-order="stroke" stroke-linejoin="round">raster.rs</text>
<circle cx="453.4" cy="397.4" r="2.0" fill="#4a3822"/>
<text x="453.4" y="407.9" font-family="'DejaVu Serif',Georgia,serif" font-size="9.0" fill="#4a3822" text-anchor="middle" stroke="#e9dec4be" stroke-width="2.5" paint-order="stroke" stroke-linejoin="round">text.rs</text>
<circle cx="735.7" cy="107.1" r="3.1" fill="#4a3822"/>
<circle cx="578.6" cy="552.9" r="3.1" fill="#4a3822"/>
<circle cx="95.2" cy="551.4" r="12.9" fill="#c6b18c" stroke="#4a3822" stroke-width="1.2"/>
<text x="95.2" y="571.6" font-family="'DejaVu Serif',Georgia,serif" font-size="9.0" fill="#4a3822d2" text-anchor="middle">anyhow</text>
<circle cx="1206.5" cy="109.4" r="19.1" fill="#c6b18c" stroke="#4a3822" stroke-width="1.2"/>
<text x="1206.5" y="135.8" font-family="'DejaVu Serif',Georgia,serif" font-size="9.0" fill="#4a3822d2" text-anchor="middle">serde</text>
<circle cx="950.7" cy="20.3" r="17.6" fill="#c6b18c" stroke="#4a3822" stroke-width="1.2"/>
<text x="950.7" y="45.2" font-family="'DejaVu Serif',Georgia,serif" font-size="9.0" fill="#4a3822d2" text-anchor="middle">c2m_layout</text>
<circle cx="95.8" cy="162.2" r="17.2" fill="#c6b18c" stroke="#4a3822" stroke-width="1.2"/>
<text x="95.8" y="186.7" font-family="'DejaVu Serif',Georgia,serif" font-size="9.0" fill="#4a3822d2" text-anchor="middle">rayon</text>
<circle cx="235.8" cy="591.1" r="18.4" fill="#c6b18c" stroke="#4a3822" stroke-width="1.2"/>
<text x="235.8" y="616.7" font-family="'DejaVu Serif',Georgia,serif" font-size="9.0" fill="#4a3822d2" text-anchor="middle">clap</text>
<circle cx="1219.3" cy="141.0" r="15.0" fill="#c6b18c" stroke="#4a3822" stroke-width="1.2"/>
<text x="1219.3" y="163.3" font-family="'DejaVu Serif',Georgia,serif" font-size="9.0" fill="#4a3822d2" text-anchor="middle">c2m_index</text>
<circle cx="57.9" cy="391.1" r="18.9" fill="#c6b18c" stroke="#4a3822" stroke-width="1.2"/>
<text x="57.9" y="417.2" font-family="'DejaVu Serif',Georgia,serif" font-size="9.0" fill="#4a3822d2" text-anchor="middle">fontdue</text>
<circle cx="1203.6" cy="398.7" r="14.8" fill="#c6b18c" stroke="#4a3822" stroke-width="1.2"/>
<text x="1203.6" y="420.7" font-family="'DejaVu Serif',Georgia,serif" font-size="9.0" fill="#4a3822d2" text-anchor="middle">serde_json</text>
<circle cx="105.4" cy="148.3" r="17.9" fill="#c6b18c" stroke="#4a3822" stroke-width="1.2"/>
<circle cx="84.7" cy="566.2" r="18.6" fill="#c6b18c" stroke="#4a3822" stroke-width="1.2"/>
<text x="84.7" y="592.0" font-family="'DejaVu Serif',Georgia,serif" font-size="9.0" fill="#4a3822d2" text-anchor="middle">tiny_skia</text>
<text x="640.0" y="33.3" font-family="'DejaVu Serif',Georgia,serif" font-size="16.6" fill="#4a3822" text-anchor="middle" font-weight="bold" stroke="#e9dec4dc" stroke-width="2.5" paint-order="stroke" stroke-linejoin="round">The Realm of h5i-context2map</text>
<text x="25.6" y="624.0" font-family="'DejaVu Serif',Georgia,serif" font-size="10.0" fill="#4a3822c8" text-anchor="start">10 regions · 9.1k lines charted</text>
<path d="M1196.8 27.5 L1205.8 48.0 L1187.8 48.0 Z" fill="#4a3822"/>
<path d="M1212.7 40.0 L1201.4 50.3 L1192.2 45.7 Z" fill="#8a6f47"/>
<path d="M1237.8 48.0 L1196.8 52.5 L1196.8 43.5 Z" fill="#4a3822"/>
<path d="M1212.7 56.0 L1192.2 50.3 L1201.4 45.7 Z" fill="#8a6f47"/>
<path d="M1196.8 68.5 L1187.8 48.0 L1205.8 48.0 Z" fill="#4a3822"/>
<path d="M1180.9 56.0 L1192.2 45.7 L1201.4 50.3 Z" fill="#8a6f47"/>
<path d="M1155.8 48.0 L1196.8 43.5 L1196.8 52.5 Z" fill="#4a3822"/>
<path d="M1180.9 40.0 L1201.4 45.7 L1192.2 50.3 Z" fill="#8a6f47"/>
<circle cx="1196.8" cy="48.0" r="2.2" fill="#e9dec4" stroke="#4a3822" stroke-width="1.0"/>
<text x="1196.8" y="18.3" font-family="'DejaVu Serif',Georgia,serif" font-size="10.0" fill="#4a3822" text-anchor="middle" font-weight="bold">N</text>
</svg>
