<svg xmlns="http://www.w3.org/2000/svg" width="1280" height="640" viewBox="0 0 1280 640">
<rect width="1280" height="640" fill="#ddd2b2"/>
<path d="M205.0 30.7 L203.6 32.1 L189.3 32.9 L162.1 32.9 L147.9 33.6 L146.4 35.0 L127.9 35.7 L92.1 35.7 L73.2 38.2 L71.1 43.2 L70.0 51.4 L70.0 62.9 L72.9 76.4 L78.6 92.1 L81.4 112.1 L81.4 136.4 L77.9 161.4 L70.7 187.1 L65.7 210.0 L62.9 230.0 L57.9 250.0 L50.7 270.0 L47.9 285.7 L49.3 297.1 L54.3 312.9 L62.9 332.9 L65.7 360.7 L62.9 396.4 L65.0 426.4 L72.1 450.7 L75.7 478.6 L75.7 510.0 L72.1 540.0 L65.0 568.6 L61.1 588.9 L60.4 601.1 L68.6 607.1 L85.7 607.1 L95.0 606.4 L96.4 605.0 L104.3 604.3 L118.6 604.3 L126.4 603.6 L127.9 602.1 L134.3 601.4 L145.7 601.4 L152.1 600.7 L153.6 599.3 L160.0 598.6 L171.4 598.6 L177.9 597.9 L179.3 596.4 L185.7 595.7 L197.1 595.7 L203.6 595.0 L205.0 593.6 L225.0 592.9 L263.6 592.9 L283.6 593.6 L285.0 595.0 L294.3 595.7 L311.4 595.7 L320.7 596.4 L322.1 597.9 L331.4 598.6 L348.6 598.6 L357.9 599.3 L359.3 600.7 L368.6 601.4 L385.7 601.4 L395.0 602.1 L396.4 603.6 L405.7 604.3 L422.9 604.3 L432.1 605.0 L433.6 606.4 L446.4 607.1 L470.7 607.1 L483.6 607.9 L485.0 609.3 L495.0 610.0 L513.6 610.0 L523.6 609.3 L525.0 607.9 L542.1 607.1 L575.0 607.1 L592.1 606.4 L593.6 605.0 L612.1 604.3 L647.9 604.3 L666.4 603.6 L667.9 602.1 L707.9 601.4 L786.4 601.4 L826.4 602.1 L827.9 603.6 L856.4 604.3 L912.1 604.3 L940.7 605.0 L942.1 606.4 L1008.6 607.1 L1140.0 607.1 L1206.4 607.9 L1207.9 609.3 L1211.4 610.0 L1217.1 610.0 L1217.5 601.1 L1212.5 583.2 L1205.7 564.3 L1197.1 544.3 L1192.9 529.3 L1192.9 519.3 L1192.1 513.6 L1190.7 512.1 L1191.4 496.4 L1194.3 466.4 L1199.3 442.9 L1206.4 425.7 L1210.0 412.1 L1210.0 402.1 L1210.7 396.4 L1212.1 395.0 L1212.1 385.7 L1210.7 368.6 L1210.7 359.3 L1212.1 357.9 L1212.9 351.4 L1212.9 340.0 L1215.7 322.1 L1221.4 297.9 L1223.6 259.3 L1222.1 206.4 L1217.9 167.9 L1210.7 143.6 L1207.1 122.9 L1207.1 105.7 L1209.3 86.4 L1213.6 65.0 L1215.4 48.2 L1214.6 36.1 L1210.0 30.0 L1201.4 30.0 L1196.4 30.7 L1195.0 32.1 L1175.0 32.9 L1136.4 32.9 L1116.4 33.6 L1115.0 35.0 L1087.1 35.7 L1032.9 35.7 L1005.0 35.0 L1003.6 33.6 L983.6 32.9 L945.0 32.9 L925.0 32.1 L923.6 30.7 L861.4 30.0 L738.6 30.0 L676.4 30.7 L675.0 32.1 L665.0 32.9 L646.4 32.9 L636.4 33.6 L635.0 35.0 L626.4 35.7 L610.7 35.7 L602.1 36.4 L600.7 37.9 L582.1 38.6 L546.4 38.6 L527.9 37.9 L526.4 36.4 L500.0 35.7 L448.6 35.7 L422.1 35.0 L420.7 33.6 L387.9 32.9 L323.6 32.9 L290.7 32.1 L289.3 30.7 L267.9 30.0 L226.4 30.0 Z" fill="#e2d7be"/>
<path d="M992.5 303.9 L988.9 308.9 L982.1 325.7 L972.1 354.3 L943.6 427.1 L896.4 544.3 L873.2 603.2 L873.9 603.9 L890.7 604.3 L923.6 604.3 L940.7 605.0 L942.1 606.4 L1008.6 607.1 L1140.0 607.1 L1206.4 607.9 L1207.9 609.3 L1211.4 610.0 L1217.1 610.0 L1217.5 601.1 L1212.5 583.2 L1205.7 564.3 L1197.1 544.3 L1192.9 529.3 L1192.9 519.3 L1192.1 513.6 L1190.7 512.1 L1190.7 500.0 L1192.1 477.1 L1194.3 460.0 L1197.1 448.6 L1201.4 436.4 L1207.1 423.6 L1210.0 411.4 L1210.0 400.0 L1208.9 393.2 L1206.8 391.1 L1200.7 387.9 L1190.7 383.6 L1184.3 380.0 L1181.4 377.1 L1175.0 373.6 L1165.0 369.3 L1158.6 365.7 L1155.7 362.9 L1149.3 359.3 L1139.3 355.0 L1132.9 351.4 L1130.0 348.6 L1123.6 345.0 L1113.6 340.7 L1107.1 337.1 L1104.3 334.3 L1097.9 330.7 L1087.9 326.4 L1081.4 322.9 L1078.6 320.0 L1072.1 316.4 L1062.1 312.1 L1054.3 307.9 L1048.6 303.6 L1032.9 301.4 L1007.1 301.4 Z" fill="#c5bd9f"/>
<path d="M1171.1 198.2 L1084.6 266.1 L1043.9 301.1 L1048.9 303.2 L1052.9 305.7 L1055.7 308.6 L1062.1 312.1 L1072.1 316.4 L1078.6 320.0 L1081.4 322.9 L1087.9 326.4 L1097.9 330.7 L1104.3 334.3 L1107.1 337.1 L1113.6 340.7 L1123.6 345.0 L1130.0 348.6 L1132.9 351.4 L1139.3 355.0 L1149.3 359.3 L1155.7 362.9 L1158.6 365.7 L1165.0 369.3 L1175.0 373.6 L1181.4 377.1 L1184.3 380.0 L1190.7 383.6 L1200.7 387.9 L1207.1 391.4 L1210.0 394.3 L1211.8 380.4 L1212.5 349.6 L1215.7 322.1 L1221.4 297.9 L1223.6 259.3 L1222.1 206.4 L1220.7 176.4 L1219.3 169.3 L1217.5 165.4 L1215.4 164.6 Z" fill="#bca885"/>
<path d="M268.2 32.5 L267.5 37.5 L267.9 40.7 L269.3 42.1 L270.0 49.3 L270.0 62.1 L270.7 69.3 L272.1 70.7 L272.9 77.9 L272.9 90.7 L273.6 97.9 L275.0 99.3 L276.4 114.3 L277.9 142.9 L279.3 157.9 L280.7 159.3 L281.4 166.4 L281.4 179.3 L282.1 186.4 L283.6 187.9 L285.4 201.1 L287.5 226.1 L290.7 238.6 L295.0 238.6 L297.9 239.3 L299.3 240.7 L302.1 241.4 L306.4 241.4 L309.3 242.1 L310.7 243.6 L313.6 244.3 L317.9 244.3 L320.7 245.0 L322.1 246.4 L325.0 247.1 L329.3 247.1 L332.1 247.9 L333.6 249.3 L336.4 250.0 L340.7 250.0 L343.6 250.7 L345.0 252.1 L347.9 252.9 L352.1 252.9 L355.0 253.6 L356.4 255.0 L359.3 255.7 L363.6 255.7 L366.4 256.4 L367.9 257.9 L370.7 258.6 L375.0 258.6 L377.9 259.3 L379.3 260.7 L382.1 261.4 L386.4 261.4 L389.3 262.1 L390.7 263.6 L393.6 264.3 L397.9 264.3 L400.7 265.0 L402.1 266.4 L405.0 267.1 L409.3 267.1 L412.1 267.9 L413.6 269.3 L416.4 270.0 L420.7 270.0 L423.6 270.7 L425.0 272.1 L427.9 272.9 L432.1 272.9 L435.0 273.6 L436.4 275.0 L439.3 275.7 L443.6 275.7 L446.4 276.4 L447.9 277.9 L450.7 278.6 L455.0 278.6 L457.9 279.3 L459.3 280.7 L462.1 281.4 L466.4 281.4 L469.3 282.1 L470.7 283.6 L473.6 284.3 L477.9 284.3 L480.7 285.0 L482.1 286.4 L485.0 287.1 L489.3 287.1 L492.1 287.9 L493.6 289.3 L496.4 290.0 L500.7 290.0 L503.6 290.7 L505.0 292.1 L507.9 292.9 L512.1 292.9 L515.0 293.6 L516.4 295.0 L519.3 295.7 L523.6 295.7 L526.4 296.4 L527.9 297.9 L530.7 298.6 L535.0 298.6 L537.9 299.3 L539.3 300.7 L542.1 301.4 L546.4 301.4 L549.3 302.1 L550.7 303.6 L553.6 304.3 L557.9 304.3 L560.7 305.0 L562.1 306.4 L565.0 307.1 L569.3 307.1 L596.8 271.1 L647.5 198.9 L666.8 130.4 L654.6 65.4 L645.7 32.9 L640.0 32.9 L636.4 33.6 L635.0 35.0 L626.4 35.7 L610.7 35.7 L602.1 36.4 L600.7 37.9 L582.1 38.6 L546.4 38.6 L527.9 37.9 L526.4 36.4 L500.0 35.7 L448.6 35.7 L422.1 35.0 L420.7 33.6 L387.9 32.9 L323.6 32.9 L290.7 32.1 L289.3 30.7 L283.6 30.0 L273.6 30.0 Z" fill="#df9b6e"/>
<path d="M648.9 197.5 L598.2 269.6 L572.9 310.0 L572.9 318.6 L578.6 350.0 L590.0 404.3 L598.6 450.0 L604.3 487.1 L608.2 507.5 L610.4 511.1 L615.7 515.7 L624.3 521.4 L630.7 525.0 L635.0 526.4 L640.7 530.0 L647.9 535.7 L653.6 539.3 L657.9 540.7 L663.6 544.3 L670.7 550.0 L676.4 553.6 L680.7 555.0 L686.4 558.6 L693.6 564.3 L699.3 567.9 L703.6 569.3 L709.3 572.9 L716.4 578.6 L722.1 582.1 L726.4 583.6 L735.0 588.6 L747.9 597.1 L772.1 601.4 L807.9 601.4 L826.4 602.1 L827.9 603.6 L839.3 604.3 L860.7 604.3 L901.8 528.2 L962.5 376.1 L964.6 266.1 L908.2 198.2 L856.4 164.3 L809.3 164.3 L785.0 163.6 L783.6 162.1 L755.7 161.4 L701.4 161.4 Z" fill="#e19d6f"/>
<path d="M59.6 319.6 L58.9 321.8 L60.7 327.9 L65.0 337.9 L65.7 360.7 L62.9 396.4 L65.0 426.4 L72.1 450.7 L75.7 478.6 L75.7 510.0 L71.4 545.7 L62.9 585.7 L58.9 606.1 L59.6 606.8 L68.6 607.1 L85.7 607.1 L95.0 606.4 L96.4 605.0 L104.3 604.3 L118.6 604.3 L126.4 603.6 L127.9 602.1 L134.3 601.4 L145.7 601.4 L152.1 600.7 L153.6 599.3 L160.0 598.6 L171.4 598.6 L177.9 597.9 L179.3 596.4 L185.7 595.7 L197.1 595.7 L203.9 594.6 L206.1 592.5 L206.4 581.4 L205.0 561.4 L203.6 550.7 L202.1 549.3 L200.7 537.9 L199.3 516.4 L197.9 505.0 L196.4 503.6 L194.3 485.7 L191.4 451.4 L189.3 433.6 L187.9 432.1 L185.0 407.9 L180.7 360.7 L177.5 336.1 L175.4 333.9 L170.0 332.9 L161.4 332.9 L156.4 332.1 L155.0 330.7 L149.3 330.0 L139.3 330.0 L133.6 329.3 L132.1 327.9 L126.4 327.1 L116.4 327.1 L110.7 326.4 L109.3 325.0 L103.6 324.3 L93.6 324.3 L87.9 323.6 L86.4 322.1 L80.7 321.4 L70.7 321.4 L64.3 320.7 L61.4 319.3 Z" fill="#da976b"/>
<path d="M205.0 30.7 L203.6 32.1 L189.3 32.9 L162.1 32.9 L147.9 33.6 L146.4 35.0 L127.9 35.7 L92.1 35.7 L73.2 38.2 L71.1 43.2 L70.0 51.4 L70.0 62.9 L72.9 76.4 L78.6 92.1 L81.4 112.1 L81.4 136.4 L77.9 161.4 L70.7 187.1 L65.7 210.0 L62.9 230.0 L57.9 250.0 L50.7 270.0 L47.9 285.7 L49.3 297.1 L51.4 306.4 L54.3 313.6 L57.5 317.5 L61.1 318.2 L63.6 319.3 L65.0 320.7 L70.7 321.4 L80.7 321.4 L86.4 322.1 L87.9 323.6 L93.6 324.3 L103.6 324.3 L109.3 325.0 L110.7 326.4 L116.4 327.1 L126.4 327.1 L132.1 327.9 L133.6 329.3 L139.3 330.0 L149.3 330.0 L155.0 330.7 L156.4 332.1 L162.9 332.9 L174.3 332.9 L206.8 308.9 L260.4 261.1 L282.1 185.7 L272.1 82.9 L266.8 31.1 L266.1 30.4 L250.7 30.0 L220.7 30.0 Z" fill="#feb17e"/>
<path d="M906.1 38.9 L901.1 56.8 L894.3 90.7 L885.7 140.7 L900.0 187.9 L937.1 232.1 L961.4 262.1 L972.9 277.9 L982.5 289.6 L990.4 297.5 L1005.7 301.4 L1028.6 301.4 L1083.9 266.8 L1171.8 197.5 L1215.7 160.7 L1215.7 156.4 L1213.6 148.6 L1209.3 137.1 L1207.1 122.9 L1207.1 105.7 L1209.3 86.4 L1213.6 65.0 L1215.7 48.6 L1215.7 37.1 L1215.4 31.1 L1214.6 30.4 L1210.0 30.0 L1201.4 30.0 L1196.4 30.7 L1195.0 32.1 L1175.0 32.9 L1136.4 32.9 L1116.4 33.6 L1115.0 35.0 L1087.1 35.7 L1032.9 35.7 L1005.0 35.0 L1003.6 33.6 L983.6 32.9 L945.0 32.9 L925.0 32.1 L923.6 30.7 L919.3 30.0 L912.1 30.0 Z" fill="#dd9a6d"/>
<path d="M275.7 247.9 L255.7 266.4 L245.0 275.7 L243.6 275.7 L227.1 290.0 L195.7 318.6 L178.9 333.2 L176.8 333.9 L177.1 340.7 L180.0 353.6 L181.4 365.7 L181.4 377.1 L182.9 389.3 L185.7 402.1 L187.1 414.3 L187.1 425.7 L188.6 437.9 L191.4 450.7 L196.4 490.7 L203.6 557.9 L207.5 591.8 L208.2 592.5 L227.1 592.9 L264.3 592.9 L283.6 593.6 L285.0 595.0 L294.3 595.7 L311.4 595.7 L320.7 596.4 L322.1 597.9 L331.4 598.6 L348.6 598.6 L357.9 599.3 L359.3 600.7 L368.6 601.4 L385.7 601.4 L395.0 602.1 L396.4 603.6 L405.7 604.3 L422.9 604.3 L432.1 605.0 L433.6 606.4 L446.4 607.1 L470.7 607.1 L483.6 607.9 L485.0 609.3 L495.0 610.0 L513.6 610.0 L523.6 609.3 L525.0 607.9 L533.6 607.1 L549.3 607.1 L570.4 583.2 L596.8 535.4 L602.1 472.1 L586.4 393.6 L577.1 342.9 L574.3 320.0 L572.5 308.2 L571.8 307.5 L569.3 307.1 L565.0 307.1 L562.1 306.4 L560.7 305.0 L557.9 304.3 L553.6 304.3 L550.7 303.6 L549.3 302.1 L546.4 301.4 L542.1 301.4 L539.3 300.7 L537.9 299.3 L535.0 298.6 L530.7 298.6 L527.9 297.9 L526.4 296.4 L523.6 295.7 L519.3 295.7 L516.4 295.0 L515.0 293.6 L512.1 292.9 L507.9 292.9 L505.0 292.1 L503.6 290.7 L500.7 290.0 L496.4 290.0 L493.6 289.3 L492.1 287.9 L489.3 287.1 L485.0 287.1 L482.1 286.4 L480.7 285.0 L477.9 284.3 L473.6 284.3 L470.7 283.6 L469.3 282.1 L466.4 281.4 L462.1 281.4 L459.3 280.7 L457.9 279.3 L455.0 278.6 L450.7 278.6 L447.9 277.9 L446.4 276.4 L443.6 275.7 L439.3 275.7 L436.4 275.0 L435.0 273.6 L432.1 272.9 L427.9 272.9 L425.0 272.1 L423.6 270.7 L420.7 270.0 L416.4 270.0 L413.6 269.3 L412.1 267.9 L409.3 267.1 L405.0 267.1 L402.1 266.4 L400.7 265.0 L397.9 264.3 L393.6 264.3 L390.7 263.6 L389.3 262.1 L386.4 261.4 L382.1 261.4 L379.3 260.7 L377.9 259.3 L375.0 258.6 L370.7 258.6 L367.9 257.9 L366.4 256.4 L363.6 255.7 L359.3 255.7 L356.4 255.0 L355.0 253.6 L352.1 252.9 L347.9 252.9 L345.0 252.1 L343.6 250.7 L340.7 250.0 L336.4 250.0 L333.6 249.3 L332.1 247.9 L329.3 247.1 L325.0 247.1 L322.1 246.4 L320.7 245.0 L317.9 244.3 L313.6 244.3 L310.7 243.6 L309.3 242.1 L306.4 241.4 L302.1 241.4 L299.3 240.7 L297.9 239.3 L294.3 238.6 L288.6 238.6 Z" fill="#ffb27e"/>
<path d="M676.4 30.7 L675.0 32.1 L668.6 32.9 L657.1 32.9 L651.1 33.2 L650.4 33.9 L651.4 45.0 L654.3 66.4 L657.9 85.0 L662.1 100.7 L664.3 112.1 L664.3 119.3 L666.8 132.5 L671.8 151.8 L701.4 161.4 L755.7 161.4 L783.6 162.1 L785.0 163.6 L809.3 164.3 L856.4 164.3 L886.4 130.7 L899.3 63.6 L848.6 30.0 L734.3 30.0 Z" fill="#d6caa4"/>
<path d="M601.8 526.1 L588.2 552.5 L580.0 567.1 L577.1 570.0 L571.8 580.4 L563.9 598.2 L567.9 607.1 L583.6 607.1 L592.1 606.4 L593.6 605.0 L612.1 604.3 L647.9 604.3 L666.4 603.6 L667.9 602.1 L689.3 601.4 L730.7 601.4 L751.4 600.7 L751.4 599.3 L750.7 598.6 L749.3 598.6 L747.1 597.1 L744.3 594.3 L737.1 590.0 L725.7 584.3 L716.4 578.6 L709.3 572.9 L703.6 569.3 L699.3 567.9 L693.6 564.3 L686.4 558.6 L680.7 555.0 L676.4 553.6 L670.7 550.0 L663.6 544.3 L657.9 540.7 L653.6 539.3 L647.9 535.7 L640.7 530.0 L635.0 526.4 L630.7 525.0 L625.0 521.4 L617.9 515.7 L612.9 512.9 L610.0 512.9 Z" fill="#d5c9a3"/>
<path d="M171.4 17.1 L170.8 17.1 L165.7 17.4 L160.0 17.7 L154.3 18.0 L148.6 18.3 L142.9 18.5 L137.1 18.8 L131.4 19.1 L125.7 19.5 L120.0 20.0 L114.3 20.6 L108.6 21.4 L102.9 22.6 L101.8 22.9 L97.1 24.0 L91.4 25.9 L85.7 28.5 L85.6 28.6 L80.0 32.0 L77.1 34.3 L74.3 36.8 L71.4 40.0 L68.6 43.8 L67.4 45.7 L64.5 51.4 L62.9 56.3 L62.6 57.1 L61.3 62.9 L60.6 68.6 L60.4 74.3 L60.6 80.0 L60.9 85.7 L61.5 91.4 L62.1 97.1 L62.8 102.9 L62.9 103.8 L63.3 108.6 L63.8 114.3 L64.0 120.0 L64.1 125.7 L64.0 131.4 L63.7 137.1 L63.2 142.9 L62.9 146.3 L62.6 148.6 L61.8 154.3 L60.8 160.0 L59.8 165.7 L58.7 171.4 L57.5 177.1 L57.1 178.9 L56.3 182.9 L55.0 188.6 L53.7 194.3 L52.5 200.0 L51.4 204.7 L51.2 205.7 L49.8 211.4 L48.5 217.1 L47.1 222.9 L45.8 228.6 L45.7 229.1 L44.4 234.3 L43.0 240.0 L41.7 245.7 L40.5 251.4 L40.0 254.4 L39.5 257.1 L38.5 262.9 L37.9 268.6 L37.5 274.3 L37.5 280.0 L37.9 285.7 L38.6 291.4 L39.8 297.1 L40.0 297.8 L41.4 302.9 L43.5 308.6 L45.7 313.4 L46.1 314.3 L49.1 320.0 L51.4 323.9 L52.5 325.7 L56.3 331.4 L57.1 332.7 L60.2 337.1 L62.9 341.0 L64.3 342.9 L68.1 348.6 L68.6 349.5 L71.5 354.3 L74.3 360.0 L74.3 360.0 L76.6 365.7 L78.3 371.4 L79.4 377.1 L80.0 382.9 L80.0 383.4 L80.3 388.6 L80.5 394.3 L80.7 400.0 L81.1 405.7 L81.6 411.4 L82.3 417.1 L83.1 422.9 L84.0 428.6 L85.0 434.3 L85.7 438.7 L86.0 440.0 L87.0 445.7 L88.0 451.4 L88.9 457.1 L89.7 462.9 L90.3 468.6 L90.8 474.3 L91.2 480.0 L91.4 485.5 L91.4 485.7 L91.6 491.4 L91.6 497.1 L91.4 502.9 L91.4 503.2 L91.2 508.6 L90.9 514.3 L90.4 520.0 L89.8 525.7 L89.1 531.4 L88.4 537.1 L87.7 542.9 L87.3 548.6 L87.3 554.3 L87.7 560.0 L89.0 565.7 L91.4 571.3 L91.5 571.4 L96.9 577.1 L97.1 577.3 L102.9 580.1 L108.6 581.8 L114.3 582.6 L118.8 582.9 L120.0 582.9 L122.5 582.9 L125.7 582.8 L131.4 582.4 L137.1 582.0 L142.9 581.7 L148.6 581.7 L154.3 582.1 L159.7 582.9 L160.0 582.9 L165.7 584.1 L171.4 585.6 L177.1 587.5 L179.7 588.6 L182.9 589.7 L188.6 591.9 L194.3 594.0 L195.0 594.3 L200.0 596.1 L205.7 597.9 L211.4 599.5 L213.5 600.0 L217.1 600.9 L222.9 602.1 L228.6 603.2 L234.3 603.9 L240.0 604.6 L245.7 605.1 L251.4 605.5 L255.6 605.7 L257.1 605.8 L262.9 606.2 L268.6 606.5 L274.3 606.8 L280.0 607.1 L285.7 607.5 L291.4 607.8 L297.1 608.2 L302.9 608.7 L308.6 609.1 L314.3 609.5 L320.0 609.9 L325.7 610.4 L331.4 610.8 L337.1 611.2 L340.0 611.4 L342.9 611.7 L348.6 612.2 L354.3 612.6 L360.0 613.1 L365.7 613.6 L371.4 614.0 L377.1 614.5 L382.9 615.0 L388.6 615.4 L394.3 615.9 L400.0 616.3 L405.7 616.8 L410.7 617.1 L411.4 617.2 L417.1 617.7 L422.9 618.2 L428.6 618.6 L434.3 619.1 L440.0 619.5 L445.7 619.9 L451.4 620.3 L457.1 620.7 L462.9 621.1 L468.6 621.4 L474.3 621.7 L480.0 622.0 L485.7 622.2 L491.4 622.3 L497.1 622.4 L502.9 622.4 L508.6 622.3 L514.3 622.0 L520.0 621.6 L525.7 621.0 L531.4 620.2 L537.1 619.2 L542.9 617.9 L545.7 617.1 L548.6 616.4 L554.3 614.8 L560.0 613.0 L564.2 611.4 L565.7 610.9 L571.4 608.7 L577.1 606.3 L578.5 605.7 L582.9 603.8 L588.6 601.1 L591.1 600.0 L594.3 598.5 L600.0 596.0 L604.1 594.3 L605.7 593.6 L611.4 591.5 L617.1 589.7 L622.3 588.6 L622.9 588.4 L628.6 587.6 L634.3 587.1 L640.0 587.0 L645.7 587.2 L651.4 587.7 L657.1 588.2 L660.1 588.6 L662.9 588.9 L668.6 589.7 L674.3 590.5 L680.0 591.5 L685.7 592.5 L691.4 593.6 L694.7 594.3 L697.1 594.8 L702.9 596.0 L708.6 597.3 L714.3 598.5 L720.0 599.8 L721.0 600.0 L725.7 601.0 L731.4 602.2 L737.1 603.3 L742.9 604.3 L748.6 605.2 L752.3 605.7 L754.3 606.0 L760.0 606.7 L765.7 607.2 L771.4 607.7 L777.1 608.1 L782.9 608.4 L788.6 608.7 L794.3 608.9 L800.0 609.1 L805.7 609.3 L811.4 609.5 L817.1 609.7 L822.9 609.8 L828.6 609.8 L834.3 609.8 L840.0 609.6 L845.7 609.2 L851.4 608.7 L857.1 607.9 L862.9 606.8 L867.8 605.7 L868.6 605.5 L874.3 604.1 L880.0 602.4 L885.7 600.5 L887.3 600.0 L891.4 598.6 L897.1 596.5 L902.9 594.5 L903.5 594.3 L908.6 592.6 L914.3 590.9 L920.0 589.4 L924.6 588.6 L925.7 588.3 L931.4 587.5 L937.1 587.0 L942.9 586.7 L948.6 586.7 L954.3 586.7 L960.0 586.9 L965.7 587.1 L971.4 587.2 L977.1 587.3 L982.9 587.4 L988.6 587.5 L994.3 587.5 L1000.0 587.5 L1005.7 587.5 L1011.4 587.5 L1017.1 587.5 L1022.9 587.5 L1028.6 587.5 L1034.3 587.5 L1040.0 587.5 L1045.7 587.5 L1051.4 587.5 L1057.1 587.5 L1062.9 587.5 L1068.6 587.5 L1074.3 587.5 L1080.0 587.5 L1085.7 587.5 L1091.4 587.5 L1097.1 587.5 L1102.9 587.5 L1108.6 587.5 L1114.3 587.5 L1120.0 587.5 L1125.7 587.5 L1131.4 587.5 L1137.1 587.5 L1142.9 587.3 L1148.6 587.0 L1154.3 586.3 L1160.0 585.3 L1165.7 583.6 L1167.5 582.9 L1171.4 580.6 L1175.4 577.1 L1177.1 574.6 L1178.8 571.4 L1180.2 565.7 L1180.6 560.0 L1180.3 554.3 L1179.6 548.6 L1178.6 542.9 L1177.6 537.1 L1177.1 534.8 L1176.5 531.4 L1175.5 525.7 L1174.7 520.0 L1174.1 514.3 L1173.7 508.6 L1173.5 502.9 L1173.4 497.1 L1173.5 491.4 L1173.8 485.7 L1174.2 480.0 L1174.8 474.3 L1175.5 468.6 L1176.4 462.9 L1177.1 458.7 L1177.4 457.1 L1178.5 451.4 L1179.7 445.7 L1181.0 440.0 L1182.3 434.3 L1182.9 432.2 L1183.7 428.6 L1184.9 422.9 L1186.1 417.1 L1187.2 411.4 L1188.2 405.7 L1188.6 403.5 L1189.1 400.0 L1189.7 394.3 L1190.3 388.6 L1190.7 382.9 L1191.2 377.1 L1191.6 371.4 L1192.0 365.7 L1192.4 360.0 L1192.9 354.3 L1193.4 348.6 L1194.1 342.9 L1194.3 341.2 L1194.8 337.1 L1195.5 331.4 L1196.2 325.7 L1197.1 320.0 L1198.0 314.3 L1198.9 308.6 L1199.8 302.9 L1200.0 301.3 L1200.6 297.1 L1201.3 291.4 L1201.9 285.7 L1202.5 280.0 L1202.9 274.3 L1203.3 268.6 L1203.5 262.9 L1203.7 257.1 L1203.7 251.4 L1203.6 245.7 L1203.5 240.0 L1203.3 234.3 L1203.0 228.6 L1202.8 222.9 L1202.4 217.1 L1202.1 211.4 L1201.7 205.7 L1201.3 200.0 L1200.8 194.3 L1200.2 188.6 L1200.0 187.0 L1199.5 182.9 L1198.6 177.1 L1197.7 171.4 L1196.7 165.7 L1195.7 160.0 L1194.7 154.3 L1194.3 151.7 L1193.7 148.6 L1192.7 142.9 L1191.8 137.1 L1191.1 131.4 L1190.5 125.7 L1190.0 120.0 L1189.8 114.3 L1189.7 108.6 L1189.7 102.9 L1189.8 97.1 L1189.9 91.4 L1189.8 85.7 L1189.5 80.0 L1188.6 74.3 L1186.9 68.6 L1184.0 62.9 L1182.9 61.4 L1178.5 57.1 L1177.1 56.2 L1171.4 53.5 L1165.7 51.7 L1164.6 51.4 L1160.0 50.7 L1154.3 50.1 L1148.6 49.9 L1142.9 49.9 L1137.1 50.1 L1131.4 50.3 L1125.7 50.5 L1120.0 50.7 L1114.3 51.0 L1108.6 51.2 L1102.9 51.4 L1102.8 51.4 L1097.1 51.7 L1091.4 51.9 L1085.7 52.0 L1080.0 52.2 L1074.3 52.3 L1068.6 52.3 L1062.9 52.4 L1057.1 52.4 L1051.4 52.4 L1045.7 52.3 L1040.0 52.2 L1034.3 52.1 L1028.6 52.0 L1022.9 51.8 L1017.1 51.6 L1014.3 51.4 L1011.4 51.3 L1005.7 51.1 L1000.0 50.9 L994.3 50.6 L988.6 50.4 L982.9 50.2 L977.1 50.0 L971.4 49.8 L965.7 49.6 L960.0 49.5 L954.3 49.3 L948.6 49.1 L942.9 49.0 L937.1 48.7 L931.4 48.5 L925.7 48.3 L920.0 48.1 L914.3 47.8 L908.6 47.6 L902.9 47.4 L897.1 47.2 L891.4 47.1 L885.7 47.0 L880.0 46.9 L874.3 46.8 L868.6 46.8 L862.9 46.8 L857.1 46.7 L851.4 46.7 L845.7 46.7 L840.0 46.7 L834.3 46.7 L828.6 46.7 L822.9 46.7 L817.1 46.7 L811.4 46.7 L805.7 46.7 L800.0 46.7 L794.3 46.7 L788.6 46.7 L782.9 46.7 L777.1 46.7 L771.4 46.7 L765.7 46.7 L760.0 46.7 L754.3 46.7 L748.6 46.7 L742.9 46.7 L737.1 46.8 L731.4 46.8 L725.7 46.8 L720.0 46.8 L714.3 46.6 L708.6 46.3 L702.9 45.7 L697.1 45.0 L691.4 43.9 L685.7 42.6 L680.0 41.0 L677.1 40.0 L674.3 39.2 L668.6 37.3 L662.9 35.4 L659.1 34.3 L657.1 33.7 L651.4 32.1 L645.7 30.8 L640.0 29.6 L634.3 28.7 L633.7 28.6 L628.6 27.9 L622.9 27.4 L617.1 27.1 L611.4 27.0 L605.7 27.0 L600.0 27.1 L594.3 27.2 L588.6 27.4 L582.9 27.7 L577.1 27.8 L571.4 28.0 L565.7 28.0 L560.0 28.0 L554.3 28.0 L548.6 27.9 L542.9 27.7 L537.1 27.5 L531.4 27.3 L525.7 27.0 L520.0 26.8 L514.3 26.5 L508.6 26.3 L502.9 26.1 L497.1 26.0 L491.4 25.9 L485.7 25.8 L480.0 25.7 L474.3 25.6 L468.6 25.5 L462.9 25.5 L457.1 25.4 L451.4 25.3 L445.7 25.1 L440.0 24.9 L434.3 24.7 L428.6 24.5 L422.9 24.3 L417.1 24.1 L411.4 23.8 L405.7 23.6 L400.0 23.4 L394.3 23.2 L388.6 23.1 L382.9 23.0 L377.1 22.9 L371.4 22.9 L369.1 22.9 L365.7 22.8 L360.0 22.8 L354.3 22.8 L348.6 22.8 L342.9 22.7 L337.1 22.7 L331.4 22.6 L325.7 22.5 L320.0 22.3 L314.3 22.0 L308.6 21.6 L302.9 21.2 L297.1 20.6 L291.4 20.0 L285.7 19.3 L280.0 18.6 L274.3 17.9 L268.6 17.2 L267.9 17.1 L262.9 16.5 L257.1 15.9 L251.4 15.4 L245.7 15.0 L240.0 14.7 L234.3 14.5 L228.6 14.5 L222.9 14.6 L217.1 14.7 L211.4 14.9 L205.7 15.1 L200.0 15.4 L194.3 15.8 L188.6 16.1 L182.9 16.4 L177.1 16.8 L171.4 17.1 " fill="none" stroke="#8a6f4796" stroke-width="0.8" stroke-linecap="round"/>
<path d="M125.7 34.1 L123.5 34.3 L120.0 34.7 L114.3 35.5 L108.6 36.7 L102.9 38.3 L98.6 40.0 L97.1 40.6 L91.4 44.0 L89.2 45.7 L85.7 49.0 L83.6 51.4 L80.0 57.0 L79.9 57.1 L77.6 62.9 L76.3 68.6 L75.6 74.3 L75.4 80.0 L75.5 85.7 L75.9 91.4 L76.5 97.1 L77.1 102.9 L77.6 108.6 L78.0 114.3 L78.3 120.0 L78.4 125.7 L78.3 131.4 L78.0 137.1 L77.5 142.9 L76.9 148.6 L76.1 154.3 L75.2 160.0 L74.3 165.1 L74.2 165.7 L73.1 171.4 L71.9 177.1 L70.7 182.9 L69.5 188.6 L68.6 192.5 L68.2 194.3 L66.9 200.0 L65.6 205.7 L64.3 211.4 L63.0 217.1 L62.9 217.7 L61.6 222.9 L60.3 228.6 L58.9 234.3 L57.6 240.0 L57.1 241.8 L56.2 245.7 L55.0 251.4 L53.9 257.1 L53.0 262.9 L52.4 268.6 L52.2 274.3 L52.3 280.0 L52.9 285.7 L54.0 291.4 L55.6 297.1 L57.1 301.0 L57.9 302.9 L60.9 308.6 L62.9 311.7 L64.6 314.3 L68.6 319.5 L69.0 320.0 L74.3 325.7 L74.3 325.7 L80.0 331.0 L80.6 331.4 L85.7 335.5 L88.2 337.1 L91.4 339.4 L97.1 342.7 L97.6 342.9 L102.9 345.5 L108.6 347.7 L111.2 348.6 L114.3 349.7 L120.0 351.6 L125.7 353.4 L128.4 354.3 L131.4 355.6 L137.1 358.5 L139.5 360.0 L142.9 362.7 L145.7 365.7 L148.6 369.4 L149.8 371.4 L152.5 377.1 L154.3 382.1 L154.5 382.9 L155.8 388.6 L156.8 394.3 L157.6 400.0 L158.3 405.7 L159.0 411.4 L159.8 417.1 L160.0 419.0 L160.4 422.9 L161.0 428.6 L161.7 434.3 L162.4 440.0 L163.0 445.7 L163.7 451.4 L164.5 457.1 L165.2 462.9 L165.7 466.7 L165.9 468.6 L166.6 474.3 L167.2 480.0 L167.9 485.7 L168.5 491.4 L169.2 497.1 L169.9 502.9 L170.7 508.6 L171.4 514.3 L171.4 514.4 L172.0 520.0 L172.7 525.7 L173.6 531.4 L174.7 537.1 L176.3 542.9 L177.1 545.1 L178.3 548.6 L180.9 554.3 L182.9 557.4 L184.4 560.0 L188.6 565.2 L189.0 565.7 L194.3 570.8 L195.0 571.4 L200.0 575.1 L203.0 577.1 L205.7 578.7 L211.4 581.7 L214.1 582.9 L217.1 584.1 L222.9 586.1 L228.6 587.7 L232.6 588.6 L234.3 588.9 L240.0 589.9 L245.7 590.6 L251.4 591.1 L257.1 591.6 L262.9 592.0 L268.6 592.3 L274.3 592.6 L280.0 592.9 L285.7 593.2 L291.4 593.6 L297.1 594.0 L300.9 594.3 L302.9 594.4 L308.6 594.9 L314.3 595.3 L320.0 595.7 L325.7 596.1 L331.4 596.6 L337.1 597.0 L342.9 597.5 L348.6 597.9 L354.3 598.4 L360.0 598.8 L365.7 599.2 L371.4 599.7 L375.7 600.0 L377.1 600.1 L382.9 600.6 L388.6 601.0 L394.3 601.4 L400.0 601.9 L405.7 602.3 L411.4 602.7 L417.1 603.1 L422.9 603.5 L428.6 603.9 L434.3 604.3 L440.0 604.7 L445.7 605.0 L451.4 605.4 L457.1 605.7 L457.4 605.7 L462.9 606.0 L468.6 606.3 L474.3 606.6 L480.0 606.8 L485.7 607.0 L491.4 607.2 L497.1 607.2 L502.9 607.2 L508.6 607.0 L514.3 606.8 L520.0 606.3 L525.2 605.7 L525.7 605.7 L531.4 604.8 L537.1 603.7 L542.9 602.3 L548.6 600.5 L550.1 600.0 L554.3 598.5 L560.0 596.1 L563.7 594.3 L565.7 593.3 L571.4 590.1 L574.0 588.6 L577.1 586.5 L582.4 582.9 L582.9 582.5 L588.6 578.0 L589.7 577.1 L594.3 573.2 L596.4 571.4 L600.0 568.2 L603.0 565.7 L605.7 563.2 L609.9 560.0 L611.4 558.8 L617.1 555.2 L619.3 554.3 L622.9 552.7 L628.6 551.4 L634.3 551.2 L640.0 552.0 L645.7 553.4 L648.3 554.3 L651.4 555.3 L657.1 557.6 L662.9 559.9 L663.0 560.0 L668.6 562.3 L674.3 564.6 L677.1 565.7 L680.0 566.8 L685.7 568.9 L691.4 571.0 L692.5 571.4 L697.1 573.0 L702.9 575.0 L708.6 576.9 L709.4 577.1 L714.3 578.6 L720.0 580.3 L725.7 582.0 L728.9 582.9 L731.4 583.5 L737.1 584.9 L742.9 586.1 L748.6 587.2 L754.3 588.2 L756.9 588.6 L760.0 589.0 L765.7 589.7 L771.4 590.2 L777.1 590.6 L782.9 590.9 L788.6 591.2 L794.3 591.5 L800.0 591.7 L805.7 591.9 L811.4 592.1 L817.1 592.3 L822.9 592.3 L828.6 592.3 L834.3 592.1 L840.0 591.8 L845.7 591.2 L851.4 590.3 L857.1 589.0 L858.7 588.6 L862.9 587.3 L868.6 585.2 L873.8 582.9 L874.3 582.6 L880.0 579.5 L883.8 577.1 L885.7 575.8 L891.3 571.4 L891.3 571.4 L897.1 565.9 L902.4 560.0 L902.9 559.3 L906.6 554.3 L908.6 551.0 L910.1 548.6 L913.1 542.9 L914.3 540.3 L915.8 537.1 L918.2 531.4 L920.0 526.8 L920.4 525.7 L922.8 520.0 L925.0 514.3 L925.7 512.5 L927.3 508.6 L929.6 502.9 L931.4 498.2 L931.9 497.1 L934.2 491.4 L936.4 485.7 L937.1 483.9 L938.8 480.0 L941.1 474.3 L942.9 469.6 L943.3 468.6 L945.6 462.9 L947.9 457.1 L948.6 455.3 L950.2 451.4 L952.5 445.7 L954.3 441.0 L954.7 440.0 L957.1 434.3 L959.3 428.6 L960.0 426.8 L961.6 422.9 L963.9 417.1 L965.7 412.4 L966.1 411.4 L968.5 405.7 L970.7 400.0 L971.4 398.1 L973.0 394.3 L975.2 388.6 L977.1 383.6 L977.4 382.9 L979.7 377.1 L981.9 371.4 L982.9 369.0 L984.2 365.7 L986.4 360.0 L988.5 354.3 L988.5 354.3 L990.6 348.6 L992.6 342.9 L994.3 337.1 L994.3 337.1 L995.9 331.4 L997.1 325.7 L998.0 320.0 L998.6 314.3 L998.7 308.6 L998.4 302.9 L997.6 297.1 L996.3 291.4 L994.5 285.7 L994.3 285.1 L992.3 280.0 L989.5 274.3 L988.6 272.6 L986.3 268.6 L982.9 263.3 L982.6 262.9 L978.6 257.1 L977.1 255.2 L974.3 251.4 L971.4 247.7 L969.9 245.7 L965.7 240.6 L965.3 240.0 L960.7 234.3 L960.0 233.5 L956.0 228.6 L954.3 226.4 L951.4 222.9 L948.6 219.4 L946.8 217.1 L942.9 212.4 L942.1 211.4 L937.4 205.7 L932.8 200.0 L931.4 198.4 L928.0 194.3 L925.7 191.5 L923.2 188.6 L920.0 184.9 L918.1 182.9 L914.3 178.7 L912.7 177.1 L908.6 173.0 L906.9 171.4 L902.9 167.8 L900.2 165.7 L897.1 163.3 L892.2 160.0 L891.4 159.5 L885.7 156.2 L881.6 154.3 L880.0 153.5 L874.3 151.3 L868.6 149.5 L864.4 148.6 L862.9 148.2 L857.1 147.1 L851.4 146.3 L845.7 145.7 L840.0 145.3 L834.3 145.0 L828.6 144.8 L822.9 144.6 L817.1 144.5 L811.4 144.3 L805.7 144.2 L800.0 144.0 L794.3 143.8 L788.6 143.5 L782.9 143.3 L777.1 143.1 L771.4 142.9 L765.7 142.6 L760.0 142.4 L754.3 142.2 L748.6 142.1 L742.9 142.0 L737.1 141.9 L731.4 141.7 L725.7 141.4 L720.0 140.8 L714.3 139.9 L708.6 138.4 L705.0 137.1 L702.9 136.2 L697.1 132.9 L695.3 131.4 L691.4 127.7 L689.8 125.7 L686.0 120.0 L685.7 119.4 L683.4 114.3 L681.3 108.6 L680.0 104.4 L679.6 102.9 L678.1 97.1 L676.6 91.4 L674.7 85.7 L674.3 84.8 L672.4 80.0 L669.3 74.3 L668.6 73.2 L665.4 68.6 L662.9 65.8 L660.1 62.9 L657.1 60.4 L653.0 57.1 L651.4 56.2 L645.7 53.0 L642.3 51.4 L640.0 50.5 L634.3 48.5 L628.6 47.0 L622.9 45.9 L621.4 45.7 L617.1 45.2 L611.4 44.8 L605.7 44.6 L600.0 44.6 L594.3 44.7 L588.6 44.8 L582.9 45.0 L577.1 45.2 L571.4 45.3 L565.7 45.3 L560.0 45.3 L554.3 45.3 L548.6 45.2 L542.9 45.0 L537.1 44.8 L531.4 44.6 L525.7 44.4 L520.0 44.2 L514.3 43.9 L508.6 43.7 L502.9 43.5 L497.1 43.4 L491.4 43.3 L485.7 43.2 L480.0 43.1 L474.3 43.0 L468.6 42.9 L462.9 42.9 L457.1 42.8 L451.4 42.7 L445.7 42.5 L440.0 42.3 L434.3 42.1 L428.6 41.9 L422.9 41.7 L417.1 41.4 L411.4 41.2 L405.7 41.0 L400.0 40.7 L394.3 40.6 L388.6 40.4 L382.9 40.3 L377.1 40.2 L371.4 40.1 L365.7 40.1 L360.0 40.1 L354.3 40.1 L348.6 40.0 L342.9 40.0 L340.0 40.0 L337.1 40.0 L331.4 39.9 L325.7 39.7 L320.0 39.5 L314.3 39.2 L308.6 38.7 L302.9 38.2 L297.1 37.5 L291.4 36.7 L285.7 35.8 L280.0 34.9 L276.5 34.3 L274.3 33.9 L268.6 33.0 L262.9 32.2 L257.1 31.4 L251.4 30.8 L245.7 30.3 L240.0 29.9 L234.3 29.6 L228.6 29.5 L222.9 29.5 L217.1 29.6 L211.4 29.7 L205.7 29.9 L200.0 30.2 L194.3 30.4 L188.6 30.7 L182.9 31.0 L177.1 31.3 L171.4 31.6 L165.7 31.9 L160.0 32.1 L154.3 32.4 L148.6 32.7 L142.9 33.0 L137.1 33.2 L131.4 33.6 L125.7 34.1 " fill="none" stroke="#8a6f4796" stroke-width="0.8" stroke-linecap="round"/>
<path d="M171.4 45.7 L171.4 45.7 L177.1 45.4 L182.9 45.2 L188.6 44.9 L194.3 44.6 L200.0 44.4 L205.7 44.1 L211.4 44.0 L217.1 43.9 L222.9 43.9 L228.6 44.0 L234.3 44.2 L240.0 44.6 L245.7 45.2 L249.4 45.7 L251.4 46.0 L257.1 47.1 L262.9 48.3 L268.6 49.6 L274.3 51.0 L276.1 51.4 L280.0 52.6 L285.7 54.2 L291.4 55.7 L297.1 57.0 L297.9 57.1 L302.9 58.3 L308.6 59.4 L314.3 60.2 L320.0 60.8 L325.7 61.2 L331.4 61.5 L337.1 61.6 L342.9 61.7 L348.6 61.7 L354.3 61.7 L360.0 61.7 L365.7 61.8 L371.4 61.8 L377.1 61.9 L382.9 62.0 L388.6 62.1 L394.3 62.2 L400.0 62.4 L405.7 62.6 L411.4 62.8 L412.8 62.9 L417.1 63.1 L422.9 63.4 L428.6 63.6 L434.3 63.9 L440.0 64.1 L445.7 64.3 L451.4 64.5 L457.1 64.6 L462.9 64.7 L468.6 64.7 L474.3 64.8 L480.0 64.9 L485.7 65.0 L491.4 65.1 L497.1 65.2 L502.9 65.4 L508.6 65.6 L514.3 65.8 L520.0 66.0 L525.7 66.2 L531.4 66.4 L537.1 66.6 L542.9 66.8 L548.6 66.9 L554.3 67.0 L560.0 67.1 L565.7 67.1 L571.4 67.0 L577.1 66.9 L582.9 66.7 L588.6 66.6 L594.3 66.6 L600.0 66.8 L605.7 67.2 L611.4 68.0 L613.9 68.6 L617.1 69.5 L622.9 72.0 L626.7 74.3 L628.6 75.8 L632.8 80.0 L634.3 82.1 L636.5 85.7 L639.1 91.4 L640.0 94.0 L641.0 97.1 L642.3 102.9 L643.6 108.6 L644.9 114.3 L645.7 117.2 L646.4 120.0 L647.9 125.7 L649.8 131.4 L651.4 135.5 L652.1 137.1 L654.8 142.9 L657.1 147.0 L658.1 148.6 L662.3 154.3 L662.9 155.0 L667.6 160.0 L668.6 160.9 L674.3 165.3 L675.0 165.7 L680.0 168.7 L685.7 171.3 L686.0 171.4 L691.4 173.4 L697.1 174.9 L702.9 176.0 L708.6 176.8 L712.7 177.1 L714.3 177.3 L720.0 177.7 L725.7 178.0 L731.4 178.2 L737.1 178.3 L742.9 178.4 L748.6 178.5 L754.3 178.6 L760.0 178.7 L765.7 178.9 L771.4 179.2 L777.1 179.4 L782.9 179.6 L788.6 179.8 L794.3 180.1 L800.0 180.3 L805.7 180.4 L811.4 180.6 L817.1 180.7 L822.9 180.9 L828.6 181.0 L834.3 181.3 L840.0 181.7 L845.7 182.3 L848.9 182.9 L851.4 183.3 L857.1 184.7 L862.9 186.6 L867.7 188.6 L868.6 189.0 L874.3 192.3 L877.2 194.3 L880.0 196.3 L884.4 200.0 L885.7 201.1 L890.5 205.7 L891.4 206.7 L895.8 211.4 L897.1 212.9 L900.8 217.1 L902.9 219.5 L905.6 222.9 L908.6 226.4 L910.4 228.6 L914.3 233.3 L915.1 234.3 L919.7 240.0 L920.0 240.4 L924.3 245.7 L925.7 247.4 L928.9 251.4 L931.4 254.5 L933.5 257.1 L937.1 261.7 L938.1 262.9 L942.5 268.6 L942.9 269.0 L946.6 274.3 L948.6 277.1 L950.4 280.0 L953.8 285.7 L954.3 286.6 L956.5 291.4 L958.6 297.1 L960.0 302.6 L960.0 302.9 L960.7 308.6 L960.8 314.3 L960.4 320.0 L960.0 322.1 L959.3 325.7 L957.9 331.4 L956.2 337.1 L954.4 342.9 L952.2 348.6 L950.1 354.3 L948.6 358.3 L947.9 360.0 L945.6 365.7 L943.4 371.4 L942.9 372.9 L941.1 377.1 L938.9 382.9 L937.1 387.4 L936.7 388.6 L934.3 394.3 L932.1 400.0 L931.4 401.8 L929.8 405.7 L927.5 411.4 L925.7 416.1 L925.3 417.1 L922.9 422.9 L920.7 428.6 L920.0 430.4 L918.4 434.3 L916.1 440.0 L914.3 444.7 L913.8 445.7 L911.5 451.4 L909.3 457.1 L908.6 458.9 L906.9 462.9 L904.7 468.6 L902.9 473.2 L902.4 474.3 L900.1 480.0 L897.8 485.7 L897.1 487.5 L895.5 491.4 L893.2 497.1 L891.4 501.8 L891.0 502.9 L888.6 508.6 L886.4 514.3 L885.7 516.1 L884.1 520.0 L881.8 525.7 L880.0 530.4 L879.6 531.4 L877.0 537.1 L874.3 542.9 L870.8 548.6 L868.6 551.6 L866.4 554.3 L862.9 557.8 L860.3 560.0 L857.1 562.2 L851.4 565.4 L850.8 565.7 L845.7 567.5 L840.0 568.8 L834.3 569.8 L828.6 570.3 L822.9 570.5 L817.1 570.5 L811.4 570.3 L805.7 570.1 L800.0 569.9 L794.3 569.6 L788.6 569.4 L782.9 569.0 L777.1 568.6 L771.4 568.1 L765.7 567.4 L760.0 566.6 L754.9 565.7 L754.3 565.6 L748.6 564.2 L742.9 562.6 L737.1 561.0 L734.1 560.0 L731.4 559.0 L725.7 556.8 L720.0 554.5 L719.4 554.3 L714.3 551.9 L708.6 549.3 L707.1 548.6 L702.9 546.3 L697.1 543.4 L696.1 542.9 L691.4 540.2 L685.9 537.1 L680.0 533.5 L676.4 531.4 L674.3 530.1 L668.6 526.7 L666.9 525.7 L662.9 523.4 L657.1 520.5 L655.9 520.0 L651.4 518.1 L645.7 516.3 L640.0 515.3 L634.3 515.1 L628.6 515.7 L622.9 517.3 L617.1 519.9 L617.0 520.0 L611.4 523.4 L608.4 525.7 L605.7 527.9 L602.0 531.4 L600.0 533.4 L596.7 537.1 L594.3 540.0 L592.0 542.9 L588.6 547.3 L587.6 548.6 L583.3 554.3 L582.9 554.8 L578.8 560.0 L577.1 561.9 L573.8 565.7 L571.4 568.1 L568.0 571.4 L565.7 573.4 L561.0 577.1 L560.0 577.8 L554.3 581.4 L551.6 582.9 L548.6 584.3 L542.9 586.7 L537.3 588.6 L531.4 590.0 L525.7 591.1 L520.0 591.9 L514.3 592.4 L508.6 592.8 L502.9 593.0 L497.1 593.0 L491.4 592.9 L485.7 592.8 L480.0 592.6 L474.3 592.3 L468.6 592.1 L462.9 591.8 L457.1 591.5 L451.4 591.1 L445.7 590.8 L440.0 590.4 L434.3 590.1 L428.6 589.7 L422.9 589.3 L417.1 589.0 L411.8 588.6 L411.4 588.5 L405.7 588.1 L400.0 587.6 L394.3 587.2 L388.6 586.8 L382.9 586.3 L377.1 585.9 L371.4 585.4 L365.7 585.0 L360.0 584.6 L354.3 584.1 L348.6 583.7 L342.9 583.3 L337.2 582.9 L331.4 582.4 L325.7 581.9 L320.0 581.5 L314.3 581.0 L308.6 580.6 L302.9 580.2 L297.1 579.8 L291.4 579.4 L285.7 579.0 L280.0 578.7 L274.3 578.4 L268.6 578.1 L262.9 577.7 L257.1 577.3 L255.6 577.1 L251.4 576.7 L245.7 575.9 L240.0 574.8 L234.3 573.3 L228.8 571.4 L222.9 568.4 L218.5 565.7 L217.1 564.6 L212.2 560.0 L211.4 559.1 L207.9 554.3 L205.7 550.4 L204.7 548.6 L202.5 542.9 L200.8 537.1 L200.0 533.3 L199.6 531.4 L198.6 525.7 L197.9 520.0 L197.2 514.3 L196.5 508.6 L195.8 502.9 L195.2 497.1 L194.5 491.4 L194.3 489.9 L193.8 485.7 L193.1 480.0 L192.4 474.3 L191.7 468.6 L191.0 462.9 L190.3 457.1 L189.7 451.4 L189.0 445.7 L188.6 442.5 L188.3 440.0 L187.6 434.3 L186.9 428.6 L186.2 422.9 L185.5 417.1 L184.9 411.4 L184.2 405.7 L183.5 400.0 L182.9 394.8 L182.8 394.3 L182.0 388.6 L181.0 382.9 L179.9 377.1 L178.5 371.4 L177.1 366.9 L176.8 365.7 L174.5 360.0 L171.6 354.3 L167.7 348.6 L165.7 346.2 L162.4 342.9 L160.0 340.7 L155.0 337.1 L154.3 336.7 L148.6 333.7 L143.0 331.4 L137.1 329.6 L131.4 328.1 L125.7 326.8 L120.4 325.7 L114.3 324.4 L108.6 322.9 L102.9 321.1 L100.1 320.0 L97.1 318.8 L91.4 315.8 L89.0 314.3 L85.7 312.0 L81.7 308.6 L80.0 307.0 L76.5 302.9 L74.3 299.9 L72.7 297.1 L70.0 291.4 L68.6 286.8 L68.3 285.7 L67.3 280.0 L66.9 274.3 L67.0 268.6 L67.5 262.9 L68.4 257.1 L68.6 256.0 L69.5 251.4 L70.8 245.7 L72.1 240.0 L73.4 234.3 L74.3 230.5 L74.8 228.6 L76.1 222.9 L77.5 217.1 L78.8 211.4 L80.0 205.8 L81.4 200.0 L82.7 194.3 L83.9 188.6 L85.1 182.9 L85.7 180.0 L86.3 177.1 L87.5 171.4 L88.6 165.7 L89.6 160.0 L90.4 154.3 L91.2 148.6 L91.4 146.0 L91.8 142.9 L92.2 137.1 L92.5 131.4 L92.6 125.7 L92.6 120.0 L92.3 114.3 L91.9 108.6 L91.4 103.8 L91.3 102.9 L90.9 97.1 L90.5 91.4 L90.3 85.7 L90.5 80.0 L91.3 74.3 L91.4 73.7 L93.0 68.6 L95.9 62.9 L97.1 61.3 L101.3 57.1 L102.9 56.0 L108.6 53.0 L112.6 51.4 L114.3 50.9 L120.0 49.6 L125.7 48.6 L131.4 48.0 L137.1 47.5 L142.9 47.2 L148.6 46.9 L154.3 46.6 L160.0 46.3 L165.7 46.0 L171.4 45.7 " fill="none" stroke="#8a6f4796" stroke-width="0.8" stroke-linecap="round"/>
<path d="M131.4 68.3 L130.2 68.6 L125.7 70.1 L120.0 73.1 L118.5 74.3 L114.3 79.3 L113.9 80.0 L112.0 85.7 L111.1 91.4 L111.0 97.1 L111.3 102.9 L111.7 108.6 L112.1 114.3 L112.3 120.0 L112.4 125.7 L112.3 131.4 L112.0 137.1 L111.6 142.9 L111.0 148.6 L110.3 154.3 L109.4 160.0 L108.6 164.6 L108.4 165.7 L107.5 171.4 L106.4 177.1 L105.2 182.9 L103.9 188.6 L102.9 193.0 L102.6 194.3 L101.4 200.0 L100.2 205.7 L98.9 211.4 L97.4 217.1 L97.1 218.3 L96.2 222.9 L94.9 228.6 L93.6 234.3 L92.2 240.0 L91.4 242.9 L90.8 245.7 L89.7 251.4 L88.6 257.1 L87.9 262.9 L87.7 268.6 L88.3 274.3 L89.9 280.0 L91.4 283.3 L92.9 285.7 L97.1 290.4 L98.4 291.4 L102.9 294.2 L108.6 296.9 L109.4 297.1 L114.3 298.5 L120.0 299.7 L125.7 300.7 L131.4 301.7 L137.1 302.8 L137.4 302.9 L142.9 303.9 L148.6 305.2 L154.3 306.9 L158.8 308.6 L160.0 309.0 L165.7 311.4 L171.1 314.3 L171.4 314.5 L177.1 318.2 L179.5 320.0 L182.9 322.9 L185.6 325.7 L188.6 329.2 L190.3 331.4 L193.9 337.1 L194.3 337.9 L196.9 342.9 L199.3 348.6 L200.0 350.8 L201.3 354.3 L202.9 360.0 L204.2 365.7 L205.3 371.4 L205.7 374.3 L206.3 377.1 L207.2 382.9 L208.0 388.6 L208.7 394.3 L209.4 400.0 L210.1 405.7 L210.7 411.4 L211.3 417.1 L211.4 418.1 L212.1 422.9 L212.8 428.6 L213.5 434.3 L214.2 440.0 L214.9 445.7 L215.6 451.4 L216.2 457.1 L216.8 462.9 L217.1 465.5 L217.5 468.6 L218.3 474.3 L219.0 480.0 L219.7 485.7 L220.4 491.4 L221.1 497.1 L221.7 502.9 L222.3 508.6 L222.9 513.3 L223.0 514.3 L223.7 520.0 L224.7 525.7 L226.0 531.4 L227.9 537.1 L228.6 538.7 L231.0 542.9 L234.3 546.8 L236.1 548.6 L240.0 551.3 L245.6 554.3 L245.7 554.3 L251.4 556.0 L257.1 557.1 L262.9 557.9 L268.6 558.5 L274.3 558.8 L280.0 559.2 L285.7 559.5 L291.4 559.9 L292.6 560.0 L297.1 560.3 L302.9 560.6 L308.6 561.0 L314.3 561.4 L320.0 561.8 L325.7 562.3 L331.4 562.7 L337.1 563.1 L342.9 563.6 L348.6 564.1 L354.3 564.5 L360.0 565.0 L365.7 565.5 L368.5 565.7 L371.4 565.9 L377.1 566.3 L382.9 566.7 L388.6 567.1 L394.3 567.5 L400.0 568.0 L405.7 568.4 L411.4 568.8 L417.1 569.3 L422.9 569.7 L428.6 570.1 L434.3 570.5 L440.0 570.9 L445.7 571.3 L447.6 571.4 L451.4 571.6 L457.1 571.9 L462.9 572.2 L468.6 572.5 L474.3 572.7 L480.0 573.0 L485.7 573.2 L491.4 573.3 L497.1 573.4 L502.9 573.3 L508.6 573.1 L514.3 572.6 L520.0 571.8 L522.1 571.4 L525.7 570.5 L531.4 568.6 L537.1 566.2 L538.1 565.7 L542.9 562.6 L546.4 560.0 L548.6 558.1 L552.3 554.3 L554.3 552.0 L557.0 548.6 L560.0 544.4 L561.0 542.9 L564.6 537.1 L565.7 535.2 L567.9 531.4 L571.4 525.7 L571.4 525.7 L574.8 520.0 L577.1 516.3 L578.4 514.3 L582.0 508.6 L582.9 507.1 L585.5 502.9 L588.6 497.8 L589.0 497.1 L592.0 491.4 L594.3 486.3 L594.5 485.7 L596.4 480.0 L597.6 474.3 L598.1 468.6 L598.0 462.9 L597.6 457.1 L596.8 451.4 L595.9 445.7 L594.8 440.0 L594.3 437.1 L593.7 434.3 L592.7 428.6 L591.6 422.9 L590.5 417.1 L589.5 411.4 L588.6 406.7 L588.4 405.7 L587.3 400.0 L586.2 394.3 L585.2 388.6 L584.1 382.9 L583.0 377.1 L582.9 376.2 L582.0 371.4 L580.8 365.7 L579.6 360.0 L578.3 354.3 L577.1 349.8 L576.8 348.6 L575.1 342.9 L573.0 337.1 L571.4 333.4 L570.5 331.4 L567.4 325.7 L565.7 323.2 L563.4 320.0 L560.0 316.1 L558.2 314.3 L554.3 310.8 L551.4 308.6 L548.6 306.6 L542.9 303.3 L541.9 302.9 L537.1 300.7 L531.4 298.4 L527.9 297.1 L525.7 296.4 L520.0 294.6 L514.3 293.0 L508.6 291.5 L502.9 290.0 L497.1 288.6 L491.4 287.1 L485.7 285.7 L480.0 284.3 L474.3 282.9 L468.6 281.4 L462.9 280.0 L457.1 278.6 L451.4 277.1 L445.7 275.7 L440.0 274.3 L434.3 272.9 L428.6 271.4 L422.9 270.0 L417.1 268.6 L411.4 267.1 L405.7 265.7 L400.0 264.3 L394.3 262.9 L388.6 261.4 L382.9 260.0 L377.1 258.6 L371.4 257.1 L365.7 255.7 L360.0 254.3 L354.3 252.9 L348.8 251.4 L342.9 249.8 L337.1 248.2 L331.4 246.4 L329.5 245.7 L325.7 244.4 L320.0 242.0 L315.8 240.0 L314.3 239.2 L308.6 235.8 L306.5 234.3 L302.9 231.3 L300.0 228.6 L297.1 225.4 L295.1 222.9 L291.4 217.3 L288.5 211.4 L286.4 205.7 L285.7 203.5 L284.7 200.0 L283.4 194.3 L282.3 188.6 L281.4 182.9 L280.7 177.1 L280.0 171.4 L280.0 170.9 L279.5 165.7 L278.9 160.0 L278.4 154.3 L277.8 148.6 L277.3 142.9 L276.7 137.1 L276.2 131.4 L275.6 125.7 L275.1 120.0 L274.5 114.3 L274.3 111.8 L274.0 108.6 L273.4 102.9 L272.6 97.1 L271.1 91.4 L268.6 85.8 L264.3 80.0 L262.9 78.6 L257.9 74.3 L257.1 73.8 L251.4 70.6 L247.2 68.6 L245.7 68.1 L240.0 66.4 L234.3 65.3 L228.6 64.4 L222.9 63.9 L217.1 63.7 L211.4 63.6 L205.7 63.7 L200.0 63.9 L194.3 64.2 L188.6 64.5 L182.9 64.8 L177.1 65.1 L171.4 65.4 L165.7 65.7 L160.0 66.0 L154.3 66.3 L148.6 66.5 L142.9 66.9 L137.1 67.4 L131.4 68.3 " fill="none" stroke="#8a6f4796" stroke-width="0.8" stroke-linecap="round"/>
<path d="M992.5 303.9 L988.9 308.9 L982.1 325.7 L972.1 354.3 L943.6 427.1 L896.4 544.3 L873.2 603.2 L873.9 603.9 L890.7 604.3 L923.6 604.3 L940.7 605.0 L942.1 606.4 L1008.6 607.1 L1140.0 607.1 L1206.4 607.9 L1207.9 609.3 L1211.4 610.0 L1217.1 610.0 L1217.5 601.1 L1212.5 583.2 L1205.7 564.3 L1197.1 544.3 L1192.9 529.3 L1192.9 519.3 L1192.1 513.6 L1190.7 512.1 L1190.7 500.0 L1192.1 477.1 L1194.3 460.0 L1197.1 448.6 L1201.4 436.4 L1207.1 423.6 L1210.0 411.4 L1210.0 400.0 L1208.9 393.2 L1206.8 391.1 L1200.7 387.9 L1190.7 383.6 L1184.3 380.0 L1181.4 377.1 L1175.0 373.6 L1165.0 369.3 L1158.6 365.7 L1155.7 362.9 L1149.3 359.3 L1139.3 355.0 L1132.9 351.4 L1130.0 348.6 L1123.6 345.0 L1113.6 340.7 L1107.1 337.1 L1104.3 334.3 L1097.9 330.7 L1087.9 326.4 L1081.4 322.9 L1078.6 320.0 L1072.1 316.4 L1062.1 312.1 L1054.3 307.9 L1048.6 303.6 L1032.9 301.4 L1007.1 301.4 Z" fill="none" stroke="#4a38225a" stroke-width="0.9" stroke-linecap="round" stroke-dasharray="5.0 4.0"/>
<path d="M1171.1 198.2 L1084.6 266.1 L1043.9 301.1 L1048.9 303.2 L1052.9 305.7 L1055.7 308.6 L1062.1 312.1 L1072.1 316.4 L1078.6 320.0 L1081.4 322.9 L1087.9 326.4 L1097.9 330.7 L1104.3 334.3 L1107.1 337.1 L1113.6 340.7 L1123.6 345.0 L1130.0 348.6 L1132.9 351.4 L1139.3 355.0 L1149.3 359.3 L1155.7 362.9 L1158.6 365.7 L1165.0 369.3 L1175.0 373.6 L1181.4 377.1 L1184.3 380.0 L1190.7 383.6 L1200.7 387.9 L1207.1 391.4 L1210.0 394.3 L1211.8 380.4 L1212.5 349.6 L1215.7 322.1 L1221.4 297.9 L1223.6 259.3 L1222.1 206.4 L1220.7 176.4 L1219.3 169.3 L1217.5 165.4 L1215.4 164.6 Z" fill="none" stroke="#4a38225a" stroke-width="0.9" stroke-linecap="round" stroke-dasharray="5.0 4.0"/>
<path d="M268.2 32.5 L267.5 37.5 L267.9 40.7 L269.3 42.1 L270.0 49.3 L270.0 62.1 L270.7 69.3 L272.1 70.7 L272.9 77.9 L272.9 90.7 L273.6 97.9 L275.0 99.3 L276.4 114.3 L277.9 142.9 L279.3 157.9 L280.7 159.3 L281.4 166.4 L281.4 179.3 L282.1 186.4 L283.6 187.9 L285.4 201.1 L287.5 226.1 L290.7 238.6 L295.0 238.6 L297.9 239.3 L299.3 240.7 L302.1 241.4 L306.4 241.4 L309.3 242.1 L310.7 243.6 L313.6 244.3 L317.9 244.3 L320.7 245.0 L322.1 246.4 L325.0 247.1 L329.3 247.1 L332.1 247.9 L333.6 249.3 L336.4 250.0 L340.7 250.0 L343.6 250.7 L345.0 252.1 L347.9 252.9 L352.1 252.9 L355.0 253.6 L356.4 255.0 L359.3 255.7 L363.6 255.7 L366.4 256.4 L367.9 257.9 L370.7 258.6 L375.0 258.6 L377.9 259.3 L379.3 260.7 L382.1 261.4 L386.4 261.4 L389.3 262.1 L390.7 263.6 L393.6 264.3 L397.9 264.3 L400.7 265.0 L402.1 266.4 L405.0 267.1 L409.3 267.1 L412.1 267.9 L413.6 269.3 L416.4 270.0 L420.7 270.0 L423.6 270.7 L425.0 272.1 L427.9 272.9 L432.1 272.9 L435.0 273.6 L436.4 275.0 L439.3 275.7 L443.6 275.7 L446.4 276.4 L447.9 277.9 L450.7 278.6 L455.0 278.6 L457.9 279.3 L459.3 280.7 L462.1 281.4 L466.4 281.4 L469.3 282.1 L470.7 283.6 L473.6 284.3 L477.9 284.3 L480.7 285.0 L482.1 286.4 L485.0 287.1 L489.3 287.1 L492.1 287.9 L493.6 289.3 L496.4 290.0 L500.7 290.0 L503.6 290.7 L505.0 292.1 L507.9 292.9 L512.1 292.9 L515.0 293.6 L516.4 295.0 L519.3 295.7 L523.6 295.7 L526.4 296.4 L527.9 297.9 L530.7 298.6 L535.0 298.6 L537.9 299.3 L539.3 300.7 L542.1 301.4 L546.4 301.4 L549.3 302.1 L550.7 303.6 L553.6 304.3 L557.9 304.3 L560.7 305.0 L562.1 306.4 L565.0 307.1 L569.3 307.1 L596.8 271.1 L647.5 198.9 L666.8 130.4 L654.6 65.4 L645.7 32.9 L640.0 32.9 L636.4 33.6 L635.0 35.0 L626.4 35.7 L610.7 35.7 L602.1 36.4 L600.7 37.9 L582.1 38.6 L546.4 38.6 L527.9 37.9 L526.4 36.4 L500.0 35.7 L448.6 35.7 L422.1 35.0 L420.7 33.6 L387.9 32.9 L323.6 32.9 L290.7 32.1 L289.3 30.7 L283.6 30.0 L273.6 30.0 Z" fill="none" stroke="#4a38225a" stroke-width="0.9" stroke-linecap="round" stroke-dasharray="5.0 4.0"/>
<path d="M648.9 197.5 L598.2 269.6 L572.9 310.0 L572.9 318.6 L578.6 350.0 L590.0 404.3 L598.6 450.0 L604.3 487.1 L608.2 507.5 L610.4 511.1 L615.7 515.7 L624.3 521.4 L630.7 525.0 L635.0 526.4 L640.7 530.0 L647.9 535.7 L653.6 539.3 L657.9 540.7 L663.6 544.3 L670.7 550.0 L676.4 553.6 L680.7 555.0 L686.4 558.6 L693.6 564.3 L699.3 567.9 L703.6 569.3 L709.3 572.9 L716.4 578.6 L722.1 582.1 L726.4 583.6 L735.0 588.6 L747.9 597.1 L772.1 601.4 L807.9 601.4 L826.4 602.1 L827.9 603.6 L839.3 604.3 L860.7 604.3 L901.8 528.2 L962.5 376.1 L964.6 266.1 L908.2 198.2 L856.4 164.3 L809.3 164.3 L785.0 163.6 L783.6 162.1 L755.7 161.4 L701.4 161.4 Z" fill="none" stroke="#4a38225a" stroke-width="0.9" stroke-linecap="round" stroke-dasharray="5.0 4.0"/>
<path d="M59.6 319.6 L58.9 321.8 L60.7 327.9 L65.0 337.9 L65.7 360.7 L62.9 396.4 L65.0 426.4 L72.1 450.7 L75.7 478.6 L75.7 510.0 L71.4 545.7 L62.9 585.7 L58.9 606.1 L59.6 606.8 L68.6 607.1 L85.7 607.1 L95.0 606.4 L96.4 605.0 L104.3 604.3 L118.6 604.3 L126.4 603.6 L127.9 602.1 L134.3 601.4 L145.7 601.4 L152.1 600.7 L153.6 599.3 L160.0 598.6 L171.4 598.6 L177.9 597.9 L179.3 596.4 L185.7 595.7 L197.1 595.7 L203.9 594.6 L206.1 592.5 L206.4 581.4 L205.0 561.4 L203.6 550.7 L202.1 549.3 L200.7 537.9 L199.3 516.4 L197.9 505.0 L196.4 503.6 L194.3 485.7 L191.4 451.4 L189.3 433.6 L187.9 432.1 L185.0 407.9 L180.7 360.7 L177.5 336.1 L175.4 333.9 L170.0 332.9 L161.4 332.9 L156.4 332.1 L155.0 330.7 L149.3 330.0 L139.3 330.0 L133.6 329.3 L132.1 327.9 L126.4 327.1 L116.4 327.1 L110.7 326.4 L109.3 325.0 L103.6 324.3 L93.6 324.3 L87.9 323.6 L86.4 322.1 L80.7 321.4 L70.7 321.4 L64.3 320.7 L61.4 319.3 Z" fill="none" stroke="#4a38225a" stroke-width="0.9" stroke-linecap="round" stroke-dasharray="5.0 4.0"/>
<path d="M205.0 30.7 L203.6 32.1 L189.3 32.9 L162.1 32.9 L147.9 33.6 L146.4 35.0 L127.9 35.7 L92.1 35.7 L73.2 38.2 L71.1 43.2 L70.0 51.4 L70.0 62.9 L72.9 76.4 L78.6 92.1 L81.4 112.1 L81.4 136.4 L77.9 161.4 L70.7 187.1 L65.7 210.0 L62.9 230.0 L57.9 250.0 L50.7 270.0 L47.9 285.7 L49.3 297.1 L51.4 306.4 L54.3 313.6 L57.5 317.5 L61.1 318.2 L63.6 319.3 L65.0 320.7 L70.7 321.4 L80.7 321.4 L86.4 322.1 L87.9 323.6 L93.6 324.3 L103.6 324.3 L109.3 325.0 L110.7 326.4 L116.4 327.1 L126.4 327.1 L132.1 327.9 L133.6 329.3 L139.3 330.0 L149.3 330.0 L155.0 330.7 L156.4 332.1 L162.9 332.9 L174.3 332.9 L206.8 308.9 L260.4 261.1 L282.1 185.7 L272.1 82.9 L266.8 31.1 L266.1 30.4 L250.7 30.0 L220.7 30.0 Z" fill="none" stroke="#4a38225a" stroke-width="0.9" stroke-linecap="round" stroke-dasharray="5.0 4.0"/>
<path d="M906.1 38.9 L901.1 56.8 L894.3 90.7 L885.7 140.7 L900.0 187.9 L937.1 232.1 L961.4 262.1 L972.9 277.9 L982.5 289.6 L990.4 297.5 L1005.7 301.4 L1028.6 301.4 L1083.9 266.8 L1171.8 197.5 L1215.7 160.7 L1215.7 156.4 L1213.6 148.6 L1209.3 137.1 L1207.1 122.9 L1207.1 105.7 L1209.3 86.4 L1213.6 65.0 L1215.7 48.6 L1215.7 37.1 L1215.4 31.1 L1214.6 30.4 L1210.0 30.0 L1201.4 30.0 L1196.4 30.7 L1195.0 32.1 L1175.0 32.9 L1136.4 32.9 L1116.4 33.6 L1115.0 35.0 L1087.1 35.7 L1032.9 35.7 L1005.0 35.0 L1003.6 33.6 L983.6 32.9 L945.0 32.9 L925.0 32.1 L923.6 30.7 L919.3 30.0 L912.1 30.0 Z" fill="none" stroke="#4a38225a" stroke-width="0.9" stroke-linecap="round" stroke-dasharray="5.0 4.0"/>
<path d="M275.7 247.9 L255.7 266.4 L245.0 275.7 L243.6 275.7 L227.1 290.0 L195.7 318.6 L178.9 333.2 L176.8 333.9 L177.1 340.7 L180.0 353.6 L181.4 365.7 L181.4 377.1 L182.9 389.3 L185.7 402.1 L187.1 414.3 L187.1 425.7 L188.6 437.9 L191.4 450.7 L196.4 490.7 L203.6 557.9 L207.5 591.8 L208.2 592.5 L227.1 592.9 L264.3 592.9 L283.6 593.6 L285.0 595.0 L294.3 595.7 L311.4 595.7 L320.7 596.4 L322.1 597.9 L331.4 598.6 L348.6 598.6 L357.9 599.3 L359.3 600.7 L368.6 601.4 L385.7 601.4 L395.0 602.1 L396.4 603.6 L405.7 604.3 L422.9 604.3 L432.1 605.0 L433.6 606.4 L446.4 607.1 L470.7 607.1 L483.6 607.9 L485.0 609.3 L495.0 610.0 L513.6 610.0 L523.6 609.3 L525.0 607.9 L533.6 607.1 L549.3 607.1 L570.4 583.2 L596.8 535.4 L602.1 472.1 L586.4 393.6 L577.1 342.9 L574.3 320.0 L572.5 308.2 L571.8 307.5 L569.3 307.1 L565.0 307.1 L562.1 306.4 L560.7 305.0 L557.9 304.3 L553.6 304.3 L550.7 303.6 L549.3 302.1 L546.4 301.4 L542.1 301.4 L539.3 300.7 L537.9 299.3 L535.0 298.6 L530.7 298.6 L527.9 297.9 L526.4 296.4 L523.6 295.7 L519.3 295.7 L516.4 295.0 L515.0 293.6 L512.1 292.9 L507.9 292.9 L505.0 292.1 L503.6 290.7 L500.7 290.0 L496.4 290.0 L493.6 289.3 L492.1 287.9 L489.3 287.1 L485.0 287.1 L482.1 286.4 L480.7 285.0 L477.9 284.3 L473.6 284.3 L470.7 283.6 L469.3 282.1 L466.4 281.4 L462.1 281.4 L459.3 280.7 L457.9 279.3 L455.0 278.6 L450.7 278.6 L447.9 277.9 L446.4 276.4 L443.6 275.7 L439.3 275.7 L436.4 275.0 L435.0 273.6 L432.1 272.9 L427.9 272.9 L425.0 272.1 L423.6 270.7 L420.7 270.0 L416.4 270.0 L413.6 269.3 L412.1 267.9 L409.3 267.1 L405.0 267.1 L402.1 266.4 L400.7 265.0 L397.9 264.3 L393.6 264.3 L390.7 263.6 L389.3 262.1 L386.4 261.4 L382.1 261.4 L379.3 260.7 L377.9 259.3 L375.0 258.6 L370.7 258.6 L367.9 257.9 L366.4 256.4 L363.6 255.7 L359.3 255.7 L356.4 255.0 L355.0 253.6 L352.1 252.9 L347.9 252.9 L345.0 252.1 L343.6 250.7 L340.7 250.0 L336.4 250.0 L333.6 249.3 L332.1 247.9 L329.3 247.1 L325.0 247.1 L322.1 246.4 L320.7 245.0 L317.9 244.3 L313.6 244.3 L310.7 243.6 L309.3 242.1 L306.4 241.4 L302.1 241.4 L299.3 240.7 L297.9 239.3 L294.3 238.6 L288.6 238.6 Z" fill="none" stroke="#4a38225a" stroke-width="0.9" stroke-linecap="round" stroke-dasharray="5.0 4.0"/>
<path d="M676.4 30.7 L675.0 32.1 L668.6 32.9 L657.1 32.9 L651.1 33.2 L650.4 33.9 L651.4 45.0 L654.3 66.4 L657.9 85.0 L662.1 100.7 L664.3 112.1 L664.3 119.3 L666.8 132.5 L671.8 151.8 L701.4 161.4 L755.7 161.4 L783.6 162.1 L785.0 163.6 L809.3 164.3 L856.4 164.3 L886.4 130.7 L899.3 63.6 L848.6 30.0 L734.3 30.0 Z" fill="none" stroke="#4a38225a" stroke-width="0.9" stroke-linecap="round" stroke-dasharray="5.0 4.0"/>
<path d="M601.8 526.1 L588.2 552.5 L580.0 567.1 L577.1 570.0 L571.8 580.4 L563.9 598.2 L567.9 607.1 L583.6 607.1 L592.1 606.4 L593.6 605.0 L612.1 604.3 L647.9 604.3 L666.4 603.6 L667.9 602.1 L689.3 601.4 L730.7 601.4 L751.4 600.7 L751.4 599.3 L750.7 598.6 L749.3 598.6 L747.1 597.1 L744.3 594.3 L737.1 590.0 L725.7 584.3 L716.4 578.6 L709.3 572.9 L703.6 569.3 L699.3 567.9 L693.6 564.3 L686.4 558.6 L680.7 555.0 L676.4 553.6 L670.7 550.0 L663.6 544.3 L657.9 540.7 L653.6 539.3 L647.9 535.7 L640.7 530.0 L635.0 526.4 L630.7 525.0 L625.0 521.4 L617.9 515.7 L612.9 512.9 L610.0 512.9 Z" fill="none" stroke="#4a38225a" stroke-width="0.9" stroke-linecap="round" stroke-dasharray="5.0 4.0"/>
<path d="M205.0 30.7 L203.6 32.1 L189.3 32.9 L162.1 32.9 L147.9 33.6 L146.4 35.0 L127.9 35.7 L92.1 35.7 L73.2 38.2 L71.1 43.2 L70.0 51.4 L70.0 62.9 L72.9 76.4 L78.6 92.1 L81.4 112.1 L81.4 136.4 L77.9 161.4 L70.7 187.1 L65.7 210.0 L62.9 230.0 L57.9 250.0 L50.7 270.0 L47.9 285.7 L49.3 297.1 L54.3 312.9 L62.9 332.9 L65.7 360.7 L62.9 396.4 L65.0 426.4 L72.1 450.7 L75.7 478.6 L75.7 510.0 L72.1 540.0 L65.0 568.6 L61.1 588.9 L60.4 601.1 L68.6 607.1 L85.7 607.1 L95.0 606.4 L96.4 605.0 L104.3 604.3 L118.6 604.3 L126.4 603.6 L127.9 602.1 L134.3 601.4 L145.7 601.4 L152.1 600.7 L153.6 599.3 L160.0 598.6 L171.4 598.6 L177.9 597.9 L179.3 596.4 L185.7 595.7 L197.1 595.7 L203.6 595.0 L205.0 593.6 L225.0 592.9 L263.6 592.9 L283.6 593.6 L285.0 595.0 L294.3 595.7 L311.4 595.7 L320.7 596.4 L322.1 597.9 L331.4 598.6 L348.6 598.6 L357.9 599.3 L359.3 600.7 L368.6 601.4 L385.7 601.4 L395.0 602.1 L396.4 603.6 L405.7 604.3 L422.9 604.3 L432.1 605.0 L433.6 606.4 L446.4 607.1 L470.7 607.1 L483.6 607.9 L485.0 609.3 L495.0 610.0 L513.6 610.0 L523.6 609.3 L525.0 607.9 L542.1 607.1 L575.0 607.1 L592.1 606.4 L593.6 605.0 L612.1 604.3 L647.9 604.3 L666.4 603.6 L667.9 602.1 L707.9 601.4 L786.4 601.4 L826.4 602.1 L827.9 603.6 L856.4 604.3 L912.1 604.3 L940.7 605.0 L942.1 606.4 L1008.6 607.1 L1140.0 607.1 L1206.4 607.9 L1207.9 609.3 L1211.4 610.0 L1217.1 610.0 L1217.5 601.1 L1212.5 583.2 L1205.7 564.3 L1197.1 544.3 L1192.9 529.3 L1192.9 519.3 L1192.1 513.6 L1190.7 512.1 L1191.4 496.4 L1194.3 466.4 L1199.3 442.9 L1206.4 425.7 L1210.0 412.1 L1210.0 402.1 L1210.7 396.4 L1212.1 395.0 L1212.1 385.7 L1210.7 368.6 L1210.7 359.3 L1212.1 357.9 L1212.9 351.4 L1212.9 340.0 L1215.7 322.1 L1221.4 297.9 L1223.6 259.3 L1222.1 206.4 L1217.9 167.9 L1210.7 143.6 L1207.1 122.9 L1207.1 105.7 L1209.3 86.4 L1213.6 65.0 L1215.4 48.2 L1214.6 36.1 L1210.0 30.0 L1201.4 30.0 L1196.4 30.7 L1195.0 32.1 L1175.0 32.9 L1136.4 32.9 L1116.4 33.6 L1115.0 35.0 L1087.1 35.7 L1032.9 35.7 L1005.0 35.0 L1003.6 33.6 L983.6 32.9 L945.0 32.9 L925.0 32.1 L923.6 30.7 L861.4 30.0 L738.6 30.0 L676.4 30.7 L675.0 32.1 L665.0 32.9 L646.4 32.9 L636.4 33.6 L635.0 35.0 L626.4 35.7 L610.7 35.7 L602.1 36.4 L600.7 37.9 L582.1 38.6 L546.4 38.6 L527.9 37.9 L526.4 36.4 L500.0 35.7 L448.6 35.7 L422.1 35.0 L420.7 33.6 L387.9 32.9 L323.6 32.9 L290.7 32.1 L289.3 30.7 L267.9 30.0 L226.4 30.0 Z" fill="none" stroke="#4a3822" stroke-width="2.2" stroke-linecap="round"/>
<path d="M205.0 30.7 L203.6 32.1 L189.3 32.9 L162.1 32.9 L147.9 33.6 L146.4 35.0 L127.9 35.7 L92.1 35.7 L73.2 38.2 L71.1 43.2 L70.0 51.4 L70.0 62.9 L72.9 76.4 L78.6 92.1 L81.4 112.1 L81.4 136.4 L77.9 161.4 L70.7 187.1 L65.7 210.0 L62.9 230.0 L57.9 250.0 L50.7 270.0 L47.9 285.7 L49.3 297.1 L54.3 312.9 L62.9 332.9 L65.7 360.7 L62.9 396.4 L65.0 426.4 L72.1 450.7 L75.7 478.6 L75.7 510.0 L72.1 540.0 L65.0 568.6 L61.1 588.9 L60.4 601.1 L68.6 607.1 L85.7 607.1 L95.0 606.4 L96.4 605.0 L104.3 604.3 L118.6 604.3 L126.4 603.6 L127.9 602.1 L134.3 601.4 L145.7 601.4 L152.1 600.7 L153.6 599.3 L160.0 598.6 L171.4 598.6 L177.9 597.9 L179.3 596.4 L185.7 595.7 L197.1 595.7 L203.6 595.0 L205.0 593.6 L225.0 592.9 L263.6 592.9 L283.6 593.6 L285.0 595.0 L294.3 595.7 L311.4 595.7 L320.7 596.4 L322.1 597.9 L331.4 598.6 L348.6 598.6 L357.9 599.3 L359.3 600.7 L368.6 601.4 L385.7 601.4 L395.0 602.1 L396.4 603.6 L405.7 604.3 L422.9 604.3 L432.1 605.0 L433.6 606.4 L446.4 607.1 L470.7 607.1 L483.6 607.9 L485.0 609.3 L495.0 610.0 L513.6 610.0 L523.6 609.3 L525.0 607.9 L542.1 607.1 L575.0 607.1 L592.1 606.4 L593.6 605.0 L612.1 604.3 L647.9 604.3 L666.4 603.6 L667.9 602.1 L707.9 601.4 L786.4 601.4 L826.4 602.1 L827.9 603.6 L856.4 604.3 L912.1 604.3 L940.7 605.0 L942.1 606.4 L1008.6 607.1 L1140.0 607.1 L1206.4 607.9 L1207.9 609.3 L1211.4 610.0 L1217.1 610.0 L1217.5 601.1 L1212.5 583.2 L1205.7 564.3 L1197.1 544.3 L1192.9 529.3 L1192.9 519.3 L1192.1 513.6 L1190.7 512.1 L1191.4 496.4 L1194.3 466.4 L1199.3 442.9 L1206.4 425.7 L1210.0 412.1 L1210.0 402.1 L1210.7 396.4 L1212.1 395.0 L1212.1 385.7 L1210.7 368.6 L1210.7 359.3 L1212.1 357.9 L1212.9 351.4 L1212.9 340.0 L1215.7 322.1 L1221.4 297.9 L1223.6 259.3 L1222.1 206.4 L1217.9 167.9 L1210.7 143.6 L1207.1 122.9 L1207.1 105.7 L1209.3 86.4 L1213.6 65.0 L1215.4 48.2 L1214.6 36.1 L1210.0 30.0 L1201.4 30.0 L1196.4 30.7 L1195.0 32.1 L1175.0 32.9 L1136.4 32.9 L1116.4 33.6 L1115.0 35.0 L1087.1 35.7 L1032.9 35.7 L1005.0 35.0 L1003.6 33.6 L983.6 32.9 L945.0 32.9 L925.0 32.1 L923.6 30.7 L861.4 30.0 L738.6 30.0 L676.4 30.7 L675.0 32.1 L665.0 32.9 L646.4 32.9 L636.4 33.6 L635.0 35.0 L626.4 35.7 L610.7 35.7 L602.1 36.4 L600.7 37.9 L582.1 38.6 L546.4 38.6 L527.9 37.9 L526.4 36.4 L500.0 35.7 L448.6 35.7 L422.1 35.0 L420.7 33.6 L387.9 32.9 L323.6 32.9 L290.7 32.1 L289.3 30.7 L267.9 30.0 L226.4 30.0 Z" fill="none" stroke="#4a382246" stroke-width="5.5" stroke-linecap="round"/>
<path d="M1058.5 479.5 Q882.4 263.2 471.1 152.7" fill="none" stroke="#7a5a38aa" stroke-width="2.5"/>
<path d="M1058.5 479.5 Q956.4 400.4 777.0 372.1" fill="none" stroke="#7a5a38aa" stroke-width="2.2"/>
<path d="M1161.3 285.1 Q720.7 292.2 390.4 438.1" fill="none" stroke="#7a5a38aa" stroke-width="2.0"/>
<path d="M1161.3 285.1 Q863.8 156.8 471.1 152.7" fill="none" stroke="#7a5a38aa" stroke-width="1.4"/>
<path d="M471.1 152.7 Q328.0 288.2 390.4 438.1" fill="none" stroke="#7a5a38aa" stroke-width="2.6"/>
<path d="M471.1 152.7 Q311.1 138.6 169.9 178.7" fill="none" stroke="#7a5a38aa" stroke-width="2.6"/>
<path d="M777.0 372.1 Q543.1 220.8 169.9 178.7" fill="none" stroke="#7a5a38aa" stroke-width="2.6"/>
<path d="M777.0 372.1 Q703.0 234.9 471.1 152.7" fill="none" stroke="#7a5a38aa" stroke-width="2.6"/>
<path d="M130.8 470.8 Q489.4 479.6 777.0 372.1" fill="none" stroke="#7a5a38aa" stroke-width="2.1"/>
<path d="M130.8 470.8 Q255.5 328.3 169.9 178.7" fill="none" stroke="#7a5a38aa" stroke-width="1.9"/>
<path d="M169.9 178.7 Q403.9 330.0 777.0 372.1" fill="none" stroke="#7a5a38aa" stroke-width="2.6"/>
<path d="M169.9 178.7 Q329.9 192.8 471.1 152.7" fill="none" stroke="#7a5a38aa" stroke-width="2.2"/>
<path d="M1047.3 145.8 Q596.8 83.3 169.9 178.7" fill="none" stroke="#7a5a38aa" stroke-width="2.2"/>
<path d="M1047.3 145.8 Q830.7 234.6 777.0 372.1" fill="none" stroke="#7a5a38aa" stroke-width="2.1"/>
<path d="M390.4 438.1 Q607.5 439.9 777.0 372.1" fill="none" stroke="#7a5a38aa" stroke-width="2.6"/>
<path d="M390.4 438.1 Q373.5 288.6 169.9 178.7" fill="none" stroke="#7a5a38aa" stroke-width="2.6"/>
<path d="M779.5 95.6 Q461.6 231.8 390.4 438.1" fill="none" stroke="#7a5a38aa" stroke-width="2.5"/>
<path d="M779.5 95.6 Q604.7 96.4 471.1 152.7" fill="none" stroke="#7a5a38aa" stroke-width="2.5"/>
<path d="M641.4 574.2 Q707.9 348.1 471.1 152.7" fill="none" stroke="#7a5a38aa" stroke-width="2.0"/>
<path d="M641.4 574.2 Q781.9 485.3 777.0 372.1" fill="none" stroke="#7a5a38aa" stroke-width="1.6"/>
<text x="361.4" y="430.0" font-family="'DejaVu Serif',Georgia,serif" font-size="11.0" fill="#4a3822" text-anchor="middle" font-weight="bold" stroke="#e9dec4c8" stroke-width="2.5" paint-order="stroke" stroke-linejoin="round">crates/c2m-render</text>
<text x="361.4" y="415.7" font-family="'DejaVu Sans',Verdana,sans-serif" font-size="9.9" fill="#8a6f47" text-anchor="middle">▲</text>
<text x="175.7" y="215.7" font-family="'DejaVu Serif',Georgia,serif" font-size="11.0" fill="#4a3822" text-anchor="middle" font-weight="bold" stroke="#e9dec4c8" stroke-width="2.5" paint-order="stroke" stroke-linejoin="round">crates/c2m-index</text>
<text x="175.7" y="201.4" font-family="'DejaVu Sans',Verdana,sans-serif" font-size="9.9" fill="#8a6f47" text-anchor="middle">▲</text>
<text x="772.9" y="355.7" font-family="'DejaVu Serif',Georgia,serif" font-size="11.0" fill="#4a3822" text-anchor="middle" font-weight="bold" stroke="#e9dec4c8" stroke-width="2.5" paint-order="stroke" stroke-linejoin="round">crates/c2m-core</text>
<text x="518.6" y="167.1" font-family="'DejaVu Serif',Georgia,serif" font-size="11.0" fill="#4a3822" text-anchor="middle" font-weight="bold" stroke="#e9dec4c8" stroke-width="2.5" paint-order="stroke" stroke-linejoin="round">crates/c2m-cli</text>
<text x="1067.1" y="450.0" font-family="'DejaVu Serif',Georgia,serif" font-size="11.0" fill="#4a3822" text-anchor="middle" font-weight="bold" stroke="#e9dec4c8" stroke-width="2.5" paint-order="stroke" stroke-linejoin="round">/</text>
<text x="1018.6" y="170.0" font-family="'DejaVu Serif',Georgia,serif" font-size="11.0" fill="#4a3822" text-anchor="middle" font-weight="bold" stroke="#e9dec4c8" stroke-width="2.5" paint-order="stroke" stroke-linejoin="round">crates/c2m-layout</text>
<text x="787.1" y="98.6" font-family="'DejaVu Serif',Georgia,serif" font-size="11.0" fill="#4a3822" text-anchor="middle" font-weight="bold" stroke="#e9dec4c8" stroke-width="2.5" paint-order="stroke" stroke-linejoin="round">docs</text>
<text x="138.6" y="530.0" font-family="'DejaVu Serif',Georgia,serif" font-size="11.0" fill="#4a3822" text-anchor="middle" font-weight="bold" stroke="#e9dec4c8" stroke-width="2.5" paint-order="stroke" stroke-linejoin="round">crates/c2m-eval</text>
<text x="1152.9" y="287.1" font-family="'DejaVu Serif',Georgia,serif" font-size="11.0" fill="#4a3822" text-anchor="middle" font-weight="bold" stroke="#e9dec4c8" stroke-width="2.5" paint-order="stroke" stroke-linejoin="round">assets</text>
<text x="624.3" y="564.3" font-family="'DejaVu Serif',Georgia,serif" font-size="11.0" fill="#4a3822" text-anchor="middle" font-weight="bold" stroke="#e9dec4c8" stroke-width="2.5" paint-order="stroke" stroke-linejoin="round">skills</text>
<circle cx="1067.1" cy="476.3" r="3.1" fill="#4a3822"/>
<circle cx="1001.4" cy="430.3" r="2.3" fill="#4a3822"/>
<circle cx="1132.9" cy="442.1" r="2.0" fill="#4a3822"/>
<circle cx="1152.9" cy="301.4" r="3.1" fill="#4a3822"/>
<circle cx="1117.1" cy="276.4" r="2.3" fill="#4a3822"/>
<circle cx="1188.6" cy="282.9" r="2.0" fill="#4a3822"/>
<circle cx="518.6" cy="192.9" r="3.1" fill="#4a3822"/>
<text x="518.6" y="204.5" font-family="'DejaVu Serif',Georgia,serif" font-size="9.0" fill="#4a3822" text-anchor="middle" stroke="#e9dec4be" stroke-width="2.5" paint-order="stroke" stroke-linejoin="round">providers.rs</text>
<circle cx="454.3" cy="147.9" r="2.3" fill="#4a3822"/>
<text x="454.3" y="158.7" font-family="'DejaVu Serif',Georgia,serif" font-size="9.0" fill="#4a3822" text-anchor="middle" stroke="#e9dec4be" stroke-width="2.5" paint-order="stroke" stroke-linejoin="round">ops.rs</text>
<circle cx="582.9" cy="159.4" r="2.0" fill="#4a3822"/>
<text x="582.9" y="169.9" font-family="'DejaVu Serif',Georgia,serif" font-size="9.0" fill="#4a3822" text-anchor="middle" stroke="#e9dec4be" stroke-width="2.5" paint-order="stroke" stroke-linejoin="round">main.rs</text>
<circle cx="772.9" cy="394.0" r="3.1" fill="#4a3822"/>
<text x="772.9" y="405.7" font-family="'DejaVu Serif',Georgia,serif" font-size="9.0" fill="#4a3822" text-anchor="middle" stroke="#e9dec4be" stroke-width="2.5" paint-order="stroke" stroke-linejoin="round">types.rs</text>
<circle cx="677.1" cy="327.0" r="2.3" fill="#4a3822"/>
<text x="677.1" y="337.9" font-family="'DejaVu Serif',Georgia,serif" font-size="9.0" fill="#4a3822" text-anchor="middle" stroke="#e9dec4be" stroke-width="2.5" paint-order="stroke" stroke-linejoin="round">history.rs</text>
<circle cx="868.6" cy="344.2" r="2.0" fill="#4a3822"/>
<text x="868.6" y="354.7" font-family="'DejaVu Serif',Georgia,serif" font-size="9.0" fill="#4a3822" text-anchor="middle" stroke="#e9dec4be" stroke-width="2.5" paint-order="stroke" stroke-linejoin="round">regions.rs</text>
<circle cx="138.6" cy="542.6" r="3.1" fill="#4a3822"/>
<circle cx="107.1" cy="520.6" r="2.3" fill="#4a3822"/>
<circle cx="170.0" cy="526.2" r="2.0" fill="#4a3822"/>
<circle cx="175.7" cy="237.4" r="3.1" fill="#4a3822"/>
<text x="175.7" y="249.1" font-family="'DejaVu Serif',Georgia,serif" font-size="9.0" fill="#4a3822" text-anchor="middle" stroke="#e9dec4be" stroke-width="2.5" paint-order="stroke" stroke-linejoin="round">handles.rs</text>
<circle cx="121.4" cy="199.4" r="2.3" fill="#4a3822"/>
<circle cx="230.0" cy="209.2" r="2.0" fill="#4a3822"/>
<circle cx="1018.6" cy="196.3" r="3.1" fill="#4a3822"/>
<text x="1018.6" y="208.0" font-family="'DejaVu Serif',Georgia,serif" font-size="9.0" fill="#4a3822" text-anchor="middle" stroke="#e9dec4be" stroke-width="2.5" paint-order="stroke" stroke-linejoin="round">lib.rs</text>
<circle cx="952.9" cy="150.3" r="2.3" fill="#4a3822"/>
<circle cx="1084.3" cy="162.1" r="2.0" fill="#4a3822"/>
<circle cx="361.4" cy="464.3" r="3.1" fill="#4a3822"/>
<text x="361.4" y="476.0" font-family="'DejaVu Serif',Georgia,serif" font-size="9.0" fill="#4a3822" text-anchor="middle" stroke="#e9dec4be" stroke-width="2.5" paint-order="stroke" stroke-linejoin="round">display.rs</text>
<circle cx="275.7" cy="404.3" r="2.3" fill="#4a3822"/>
<text x="275.7" y="415.2" font-family="'DejaVu Serif',Georgia,serif" font-size="9.0" fill="#4a3822" text-anchor="middle" stroke="#e9dec4be" stroke-width="2.5" paint-order="stroke" stroke-linejoin="round">text.rs</text>
<circle cx="447.1" cy="419.7" r="2.0" fill="#4a3822"/>
<text x="447.1" y="430.2" font-family="'DejaVu Serif',Georgia,serif" font-size="9.0" fill="#4a3822" text-anchor="middle" stroke="#e9dec4be" stroke-width="2.5" paint-order="stroke" stroke-linejoin="round">raster.rs</text>
<circle cx="787.1" cy="111.7" r="3.1" fill="#4a3822"/>
<circle cx="624.3" cy="572.3" r="3.1" fill="#4a3822"/>
<circle cx="42.5" cy="573.8" r="12.9" fill="#c6b18c" stroke="#4a3822" stroke-width="1.2"/>
<text x="42.5" y="594.0" font-family="'DejaVu Serif',Georgia,serif" font-size="9.0" fill="#4a3822d2" text-anchor="middle">anyhow</text>
<circle cx="1240.0" cy="134.6" r="15.0" fill="#c6b18c" stroke="#4a3822" stroke-width="1.2"/>
<text x="1240.0" y="156.9" font-family="'DejaVu Serif',Georgia,serif" font-size="9.0" fill="#4a3822d2" text-anchor="middle">serde</text>
<circle cx="46.0" cy="129.2" r="17.9" fill="#c6b18c" stroke="#4a3822" stroke-width="1.2"/>
<text x="46.0" y="154.3" font-family="'DejaVu Serif',Georgia,serif" font-size="9.0" fill="#4a3822d2" text-anchor="middle">c2m_layout</text>
<text x="640.0" y="33.3" font-family="'DejaVu Serif',Georgia,serif" font-size="16.6" fill="#4a3822" text-anchor="middle" font-weight="bold" stroke="#e9dec4dc" stroke-width="2.5" paint-order="stroke" stroke-linejoin="round">The Realm of h5i-context2map</text>
<text x="25.6" y="624.0" font-family="'DejaVu Serif',Georgia,serif" font-size="10.0" fill="#4a3822c8" text-anchor="start">10 regions · 10.7k lines charted</text>
<path d="M1196.8 27.5 L1205.8 48.0 L1187.8 48.0 Z" fill="#4a3822"/>
<path d="M1212.7 40.0 L1201.4 50.3 L1192.2 45.7 Z" fill="#8a6f47"/>
<path d="M1237.8 48.0 L1196.8 52.5 L1196.8 43.5 Z" fill="#4a3822"/>
<path d="M1212.7 56.0 L1192.2 50.3 L1201.4 45.7 Z" fill="#8a6f47"/>
<path d="M1196.8 68.5 L1187.8 48.0 L1205.8 48.0 Z" fill="#4a3822"/>
<path d="M1180.9 56.0 L1192.2 45.7 L1201.4 50.3 Z" fill="#8a6f47"/>
<path d="M1155.8 48.0 L1196.8 43.5 L1196.8 52.5 Z" fill="#4a3822"/>
<path d="M1180.9 40.0 L1201.4 45.7 L1192.2 50.3 Z" fill="#8a6f47"/>
<circle cx="1196.8" cy="48.0" r="2.2" fill="#e9dec4" stroke="#4a3822" stroke-width="1.0"/>
<text x="1196.8" y="18.3" font-family="'DejaVu Serif',Georgia,serif" font-size="10.0" fill="#4a3822" text-anchor="middle" font-weight="bold">N</text>
</svg>
